<svg width="85" height="85" viewBox="0 0 85 85" fill="none" xmlns="http://www.w3.org/2000/svg">
<path d="M0 0H80C82.7614 0 85 2.23858 85 5V85H5C2.23858 85 0 82.7614 0 80V0Z" fill="#254828" fill-opacity="0.1"/>
<path fill-rule="evenodd" clip-rule="evenodd" d="M57.7189 53.6152C57.7189 55.1938 56.4313 56.4778 54.8494 56.4778H28.6748C27.0929 56.4778 25.8052 55.1938 25.8052 53.6152V32.0641C25.8052 30.4855 27.0929 29.2015 28.6748 29.2015H54.8494C56.4313 29.2015 57.7189 30.4855 57.7189 32.0641V53.6152ZM54.8494 27.64H28.6748C26.2299 27.64 24.24 29.6246 24.24 32.0641V53.6152C24.24 56.0547 26.2299 58.0393 28.6748 58.0393H54.8494C57.2948 58.0393 59.2842 56.0547 59.2842 53.6152V32.0641C59.2842 29.6246 57.2948 27.64 54.8494 27.64ZM53.5696 44.7941C53.1376 44.7941 52.7869 45.1433 52.7869 45.5748V51.5577H48.4482V46.3742C48.4482 45.9433 48.0981 45.5935 47.6656 45.5935C47.2336 45.5935 46.8829 45.9433 46.8829 46.3742V51.5577H42.5447V44.1409C42.5447 43.7094 42.1941 43.3601 41.7621 43.3601C41.3301 43.3601 40.9795 43.7094 40.9795 44.1409V51.5577H36.6412V39.0443C36.6412 38.6133 36.2906 38.2636 35.8586 38.2636C35.4261 38.2636 35.076 38.6133 35.076 39.0443V51.5577H30.7377V37.4188C30.7377 36.9874 30.3871 36.6381 29.9551 36.6381C29.5231 36.6381 29.1725 36.9874 29.1725 37.4188V52.3384C29.1725 52.7694 29.5231 53.1192 29.9551 53.1192H53.5696C54.0016 53.1192 54.3522 52.7694 54.3522 52.3384V45.5748C54.3522 45.1433 54.0016 44.7941 53.5696 44.7941ZM29.9014 34.1195C34.2209 34.4177 36.8035 36.7833 39.3005 39.0708C41.0056 40.6318 42.6156 42.1068 44.6916 42.8995C45.8822 43.3544 47.1501 43.5793 48.4356 43.5793C50.2909 43.5793 52.1838 43.1103 53.9353 42.187C54.3172 41.9855 54.4633 41.5129 54.2614 41.1319C54.0589 40.7504 53.5862 40.6047 53.2038 40.8066C50.6379 42.1599 47.7391 42.391 45.2515 41.4411C43.4541 40.7551 41.9509 39.3779 40.3596 37.9206C37.789 35.5659 34.8756 32.8974 30.0094 32.5617C29.5857 32.5341 29.2049 32.8568 29.1746 33.2867C29.1443 33.7172 29.4699 34.0898 29.9014 34.1195Z" fill="#254828"/>
</svg>
