<svg width="85" height="85" viewBox="0 0 85 85" fill="none" xmlns="http://www.w3.org/2000/svg">
<path d="M0 0H80C82.7614 0 85 2.23858 85 5V85H5C2.23858 85 0 82.7614 0 80V0Z" fill="#254828" fill-opacity="0.1"/>
<path d="M55.9149 29.3911H30.4933C29.8556 29.3918 29.2443 29.6454 28.7933 30.0963C28.3424 30.5471 28.0888 31.1585 28.0881 31.7961V42.2914C26.9266 43.4759 26.1409 44.9771 25.8295 46.6065C25.5181 48.2359 25.6948 49.9211 26.3376 51.4504C26.9804 52.9797 28.0605 54.2852 29.4425 55.2029C30.8245 56.1206 32.4467 56.6097 34.1056 56.6088C38.5516 56.6088 42.2039 53.1474 42.5103 48.7781H55.9149C56.5525 48.7773 57.1638 48.5237 57.6147 48.0729C58.0656 47.622 58.3192 47.0107 58.32 46.3731V31.7961C58.3192 31.1585 58.0656 30.5472 57.6147 30.0963C57.1639 29.6455 56.5526 29.3919 55.9149 29.3911ZM34.1058 55.8127C32.5967 55.8127 31.1216 55.3653 29.8668 54.5269C28.6121 53.6885 27.6342 52.4969 27.0567 51.1027C26.4792 49.7085 26.3281 48.1744 26.6225 46.6943C26.9169 45.2143 27.6436 43.8547 28.7106 42.7877C29.7777 41.7206 31.1372 40.994 32.6173 40.6996C34.0974 40.4052 35.6315 40.5563 37.0257 41.1338C38.4198 41.7113 39.6115 42.6892 40.4498 43.944C41.2882 45.1987 41.7357 46.6739 41.7357 48.1829C41.7334 50.2058 40.9288 52.1451 39.4984 53.5755C38.068 55.0059 36.1286 55.8105 34.1058 55.8127ZM57.5239 46.3731C57.5234 46.7997 57.3538 47.2087 57.0521 47.5104C56.7505 47.8121 56.3415 47.9817 55.9149 47.9822H42.5292C42.4928 46.4168 42.0206 44.8925 41.1657 43.5806C40.3108 42.2686 39.1071 41.2211 37.6897 40.5555C36.2724 39.8899 34.6975 39.6326 33.142 39.8127C31.5865 39.9927 30.112 40.6028 28.8842 41.5746V31.7961C28.8846 31.3695 29.0543 30.9606 29.356 30.6589C29.6577 30.3573 30.0667 30.1877 30.4933 30.1872H55.9149C56.3415 30.1877 56.7505 30.3574 57.0521 30.659C57.3537 30.9606 57.5234 31.3696 57.5239 31.7961V46.3731Z" fill="#254828"/>
<path d="M51.2489 40.4941C50.8018 40.4935 50.3604 40.5941 49.9578 40.7884C49.5035 40.57 49.0012 40.4703 48.4979 40.4988C47.9946 40.5273 47.5068 40.6829 47.08 40.9513C46.6533 41.2196 46.3016 41.5917 46.0578 42.033C45.814 42.4742 45.6862 42.9701 45.6862 43.4742C45.6862 43.9782 45.814 44.4741 46.0578 44.9153C46.3016 45.3566 46.6533 45.7287 47.08 45.997C47.5068 46.2654 47.9946 46.421 48.4979 46.4495C49.0012 46.478 49.5035 46.3784 49.9578 46.1599C50.3612 46.3539 50.8031 46.4545 51.2508 46.4543C51.6984 46.4541 52.1403 46.353 52.5435 46.1586C52.9467 45.9642 53.301 45.6815 53.5799 45.3314C53.8589 44.9813 54.0554 44.5729 54.1549 44.1364C54.2543 43.7 54.2542 43.2467 54.1544 42.8103C54.0547 42.374 53.8579 41.9656 53.5787 41.6157C53.2995 41.2658 52.9451 40.9833 52.5418 40.7892C52.1384 40.595 51.6965 40.4942 51.2489 40.4943V40.4941ZM48.6668 45.6582C48.3586 45.6586 48.0538 45.5938 47.7725 45.4681C47.4911 45.3423 47.2396 45.1584 47.0343 44.9285C46.8291 44.6986 46.6749 44.4279 46.5817 44.1341C46.4886 43.8404 46.4587 43.5302 46.494 43.2241C46.5293 42.9179 46.6289 42.6227 46.7865 42.3578C46.944 42.0929 47.1558 41.8644 47.4079 41.6872C47.6601 41.51 47.9469 41.3882 48.2494 41.3297C48.552 41.2713 48.8636 41.2775 49.1636 41.3481C48.8803 41.625 48.6553 41.9558 48.5016 42.3209C48.348 42.686 48.2688 43.0782 48.2688 43.4743C48.2688 43.8705 48.348 44.2626 48.5016 44.6277C48.6553 44.9929 48.8803 45.3236 49.1636 45.6006C49.0007 45.6387 48.834 45.6581 48.6668 45.6582ZM50.8508 43.4741C50.8507 43.817 50.7698 44.1551 50.6147 44.4609C50.4595 44.7668 50.2345 45.0317 49.9578 45.2343C49.6811 45.0318 49.456 44.7668 49.3009 44.461C49.1457 44.1552 49.0649 43.8171 49.0649 43.4742C49.0649 43.1312 49.1457 42.7931 49.3009 42.4873C49.456 42.1815 49.6811 41.9166 49.9578 41.714C50.2345 41.9166 50.4595 42.1815 50.6147 42.4873C50.7698 42.7931 50.8507 43.1312 50.8508 43.4741ZM51.2489 45.6582C51.0816 45.658 50.9149 45.6387 50.752 45.6005C51.0353 45.3236 51.2603 44.9928 51.414 44.6277C51.5677 44.2625 51.6468 43.8704 51.6468 43.4742C51.6468 43.0781 51.5677 42.686 51.414 42.3208C51.2603 41.9557 51.0353 41.6249 50.752 41.348C51.0519 41.2779 51.3631 41.272 51.6654 41.3307C51.9676 41.3894 52.2541 41.5114 52.5059 41.6886C52.7577 41.8658 52.9692 42.0942 53.1265 42.3589C53.2838 42.6236 53.3833 42.9186 53.4186 43.2245C53.4538 43.5303 53.424 43.8402 53.3311 44.1338C53.2381 44.4273 53.0841 44.6979 52.8792 44.9277C52.6743 45.1575 52.4232 45.3415 52.1422 45.4674C51.8612 45.5933 51.5568 45.6584 51.2489 45.6584V45.6582Z" fill="#254828"/>
<path d="M31.1052 33.8269H41.726C41.8315 33.8269 41.9328 33.7849 42.0074 33.7103C42.0821 33.6356 42.124 33.5344 42.124 33.4288C42.124 33.3232 42.0821 33.222 42.0074 33.1473C41.9328 33.0727 41.8315 33.0308 41.726 33.0308H31.1052C30.9996 33.0308 30.8984 33.0727 30.8237 33.1473C30.7491 33.222 30.7072 33.3232 30.7072 33.4288C30.7072 33.5344 30.7491 33.6356 30.8237 33.7103C30.8984 33.7849 30.9996 33.8269 31.1052 33.8269Z" fill="#254828"/>
<path d="M44.3188 33.0308H43.1687C43.0631 33.0308 42.9619 33.0727 42.8872 33.1473C42.8126 33.222 42.7706 33.3232 42.7706 33.4288C42.7706 33.5344 42.8126 33.6356 42.8872 33.7103C42.9619 33.7849 43.0631 33.8269 43.1687 33.8269H44.3188C44.4244 33.8269 44.5257 33.7849 44.6003 33.7103C44.675 33.6356 44.7169 33.5344 44.7169 33.4288C44.7169 33.3232 44.675 33.222 44.6003 33.1473C44.5257 33.0727 44.4244 33.0308 44.3188 33.0308Z" fill="#254828"/>
<path d="M31.6014 35.0378H31.1052C30.9996 35.0378 30.8984 35.0798 30.8237 35.1544C30.7491 35.2291 30.7072 35.3303 30.7072 35.4359C30.7072 35.5415 30.7491 35.6427 30.8237 35.7174C30.8984 35.792 30.9996 35.8339 31.1052 35.8339H31.6014C31.7069 35.8339 31.8082 35.792 31.8828 35.7174C31.9575 35.6427 31.9994 35.5415 31.9994 35.4359C31.9994 35.3303 31.9575 35.2291 31.8828 35.1544C31.8082 35.0798 31.7069 35.0378 31.6014 35.0378Z" fill="#254828"/>
<path d="M39.719 35.0378H33.0871C32.9816 35.0378 32.8803 35.0798 32.8057 35.1544C32.731 35.2291 32.6891 35.3303 32.6891 35.4359C32.6891 35.5415 32.731 35.6427 32.8057 35.7174C32.8803 35.792 32.9816 35.8339 33.0871 35.8339H39.719C39.8246 35.8339 39.9258 35.792 40.0004 35.7174C40.0751 35.6427 40.117 35.5415 40.117 35.4359C40.117 35.3303 40.0751 35.2291 40.0004 35.1544C39.9258 35.0798 39.8246 35.0378 39.719 35.0378Z" fill="#254828"/>
<path d="M44.3189 35.0378H41.1617C41.0562 35.0378 40.9549 35.0798 40.8803 35.1544C40.8056 35.2291 40.7637 35.3303 40.7637 35.4359C40.7637 35.5415 40.8056 35.6427 40.8803 35.7174C40.9549 35.792 41.0562 35.8339 41.1617 35.8339H44.3189C44.4244 35.8339 44.5257 35.792 44.6003 35.7174C44.675 35.6427 44.7169 35.5415 44.7169 35.4359C44.7169 35.3303 44.675 35.2291 44.6003 35.1544C44.5257 35.0798 44.4244 35.0378 44.3189 35.0378Z" fill="#254828"/>
<path d="M37.5034 45.7974L32.6995 49.7057L30.7597 47.4341C30.691 47.3544 30.5935 47.3052 30.4886 47.2972C30.3836 47.2892 30.2798 47.3231 30.1998 47.3914C30.1198 47.4598 30.0701 47.557 30.0615 47.6619C30.053 47.7668 30.0864 47.8708 30.1543 47.9511L32.3465 50.5182C32.4139 50.5972 32.5097 50.6467 32.6132 50.6561C32.7167 50.6655 32.8197 50.6341 32.9003 50.5685L38.0061 46.415C38.0467 46.382 38.0803 46.3413 38.1052 46.2953C38.13 46.2493 38.1456 46.1989 38.1509 46.1469C38.1563 46.0949 38.1513 46.0424 38.1363 45.9923C38.1214 45.9422 38.0967 45.8955 38.0637 45.855C38.0307 45.8144 37.9901 45.7808 37.9441 45.7559C37.8981 45.7311 37.8476 45.7156 37.7957 45.7102C37.7436 45.7049 37.6911 45.7098 37.641 45.7248C37.5909 45.7397 37.5443 45.7644 37.5037 45.7974H37.5034Z" fill="#254828"/>
</svg>
