<svg width="85" height="85" viewBox="0 0 85 85" fill="none" xmlns="http://www.w3.org/2000/svg">
<path d="M0 0H80C82.7614 0 85 2.23858 85 5V85H5C2.23858 85 0 82.7614 0 80V0Z" fill="#254828" fill-opacity="0.1"/>
<path d="M50.4 59.8002H33.12C32.6744 59.8002 32.2471 59.6232 31.9321 59.3081C31.617 58.9931 31.44 58.5658 31.44 58.1202V27.8802C31.44 27.4346 31.617 27.0073 31.9321 26.6923C32.2471 26.3772 32.6744 26.2002 33.12 26.2002H50.4C50.8456 26.2002 51.2729 26.3772 51.5879 26.6923C51.903 27.0073 52.08 27.4346 52.08 27.8802V58.1202C52.08 58.5658 51.903 58.9931 51.5879 59.3081C51.2729 59.6232 50.8456 59.8002 50.4 59.8002ZM33.12 27.1602C32.929 27.1602 32.7459 27.2361 32.6109 27.3711C32.4759 27.5061 32.4 27.6892 32.4 27.8802V58.1202C32.4 58.3111 32.4759 58.4943 32.6109 58.6293C32.7459 58.7643 32.929 58.8402 33.12 58.8402H50.4C50.591 58.8402 50.7741 58.7643 50.9091 58.6293C51.0441 58.4943 51.12 58.3111 51.12 58.1202V27.8802C51.12 27.6892 51.0441 27.5061 50.9091 27.3711C50.7741 27.2361 50.591 27.1602 50.4 27.1602H33.12Z" fill="#254828"/>
<path d="M41.76 30.1314C41.6125 30.1312 41.4657 30.1118 41.3232 30.0738C41.0479 29.9995 40.7968 29.8546 40.5947 29.6534C40.3926 29.4522 40.2467 29.2016 40.1712 28.9266C40.0824 28.6226 40.0824 28.2995 40.1712 27.9954C40.2063 27.8971 40.2085 27.7901 40.1773 27.6905C40.1461 27.5909 40.0833 27.5041 39.9984 27.4434L39.3936 27.0978C39.303 27.0437 39.2327 26.9613 39.1937 26.8632C39.1546 26.7652 39.149 26.657 39.1776 26.5554C39.2057 26.4507 39.2685 26.3586 39.3557 26.2941C39.4428 26.2296 39.5492 26.1965 39.6576 26.2002H43.9008C44.0092 26.1965 44.1156 26.2296 44.2028 26.2941C44.2899 26.3586 44.3527 26.4507 44.3808 26.5554C44.4086 26.6581 44.4015 26.767 44.3607 26.8652C44.3198 26.9633 44.2476 27.0452 44.1552 27.0978L43.5696 27.4338C43.4759 27.4939 43.406 27.5847 43.3718 27.6907C43.3377 27.7966 43.3414 27.9111 43.3824 28.0146C43.4279 28.1705 43.4505 28.3322 43.4496 28.4946C43.4471 28.7133 43.4013 28.9294 43.3149 29.1303C43.2284 29.3312 43.1031 29.513 42.946 29.6652C42.7889 29.8174 42.6032 29.9369 42.3996 30.0169C42.1961 30.097 41.9787 30.1359 41.76 30.1314ZM41.0112 27.1602C41.1859 27.507 41.2186 27.9082 41.1024 28.2786C41.0747 28.3669 41.0653 28.4598 41.0747 28.5518C41.084 28.6437 41.112 28.7329 41.1569 28.8137C41.2018 28.8945 41.2627 28.9653 41.3359 29.0219C41.409 29.0784 41.4929 29.1195 41.5824 29.1426C41.6866 29.1738 41.7967 29.1797 41.9036 29.1596C42.0105 29.1396 42.111 29.0943 42.1968 29.0274C42.2802 28.9626 42.3477 28.8796 42.3943 28.7848C42.4409 28.69 42.4653 28.5859 42.4656 28.4802C42.4658 28.4151 42.4561 28.3504 42.4368 28.2882C42.3186 27.9157 42.3478 27.5119 42.5184 27.1602H41.0112Z" fill="#254828"/>
<path d="M45.6816 58.2018H37.8384C37.7111 58.2018 37.589 58.1512 37.499 58.0612C37.409 57.9712 37.3584 57.8491 37.3584 57.7218C37.3584 57.5945 37.409 57.4724 37.499 57.3824C37.589 57.2924 37.7111 57.2418 37.8384 57.2418H45.6816C45.8089 57.2418 45.931 57.2924 46.021 57.3824C46.111 57.4724 46.1616 57.5945 46.1616 57.7218C46.1616 57.8491 46.111 57.9712 46.021 58.0612C45.931 58.1512 45.8089 58.2018 45.6816 58.2018Z" fill="#254828"/>
<path d="M45.72 29.0227C45.6565 29.0224 45.5937 29.0096 45.5352 28.9849C45.4767 28.9601 45.4237 28.9241 45.3792 28.8787C45.2898 28.7888 45.2396 28.6671 45.2396 28.5403C45.2396 28.4135 45.2898 28.2918 45.3792 28.2019L45.4512 28.1203H45.5376L45.624 28.0915C45.7022 28.0758 45.7832 28.0799 45.8594 28.1034C45.9357 28.1268 46.0049 28.169 46.0608 28.2259C46.104 28.2701 46.1382 28.3223 46.1616 28.3795C46.1868 28.4387 46.1999 28.5024 46.2 28.5667C46.1995 28.6926 46.1495 28.8133 46.0608 28.9027C46.0164 28.9481 45.9633 28.9841 45.9048 29.0089C45.8463 29.0336 45.7835 29.0464 45.72 29.0467V29.0227Z" fill="#254828"/>
<path d="M47.4576 29.0178C47.3317 29.0173 47.211 28.9673 47.1216 28.8786C47.0839 28.8337 47.0561 28.7814 47.04 28.725C47.0154 28.6673 47.0023 28.6054 47.0016 28.5426C47.0017 28.4783 47.0148 28.4146 47.04 28.3554C47.0632 28.2969 47.0993 28.2444 47.1456 28.2018C47.2355 28.1124 47.3572 28.0623 47.484 28.0623C47.6108 28.0623 47.7325 28.1124 47.8224 28.2018C47.8669 28.2467 47.9021 28.2999 47.926 28.3584C47.9498 28.4168 47.962 28.4795 47.9616 28.5426C47.9616 28.6699 47.911 28.792 47.821 28.882C47.731 28.9721 47.6089 29.0226 47.4816 29.0226L47.4576 29.0178Z" fill="#254828"/>
<path d="M41.76 39.1603C41.1847 39.1603 40.6223 38.9897 40.144 38.67C39.6656 38.3504 39.2928 37.8961 39.0726 37.3646C38.8525 36.8331 38.7949 36.2482 38.9071 35.684C39.0193 35.1197 39.2964 34.6014 39.7032 34.1946C40.11 33.7878 40.6283 33.5108 41.1925 33.3985C41.7568 33.2863 42.3416 33.3439 42.8731 33.5641C43.4047 33.7842 43.859 34.1571 44.1786 34.6354C44.4982 35.1138 44.6688 35.6761 44.6688 36.2515C44.6675 37.0225 44.3607 37.7617 43.8154 38.3069C43.2702 38.8521 42.5311 39.159 41.76 39.1603ZM41.76 34.3027C41.3746 34.3027 40.9978 34.4169 40.6773 34.6311C40.3568 34.8452 40.107 35.1496 39.9595 35.5057C39.812 35.8618 39.7734 36.2536 39.8486 36.6316C39.9238 37.0097 40.1094 37.3569 40.382 37.6295C40.6545 37.902 41.0018 38.0876 41.3798 38.1628C41.7578 38.238 42.1497 38.1994 42.5058 38.0519C42.8619 37.9044 43.1662 37.6546 43.3804 37.3341C43.5945 37.0137 43.7088 36.6369 43.7088 36.2515C43.7088 35.9955 43.6584 35.7421 43.5605 35.5057C43.4625 35.2692 43.319 35.0544 43.138 34.8734C42.957 34.6925 42.7422 34.5489 42.5058 34.451C42.2693 34.3531 42.0159 34.3027 41.76 34.3027Z" fill="#254828"/>
<path d="M45.72 43.1202H37.8C37.6727 43.1202 37.5506 43.0696 37.4606 42.9796C37.3706 42.8896 37.32 42.7675 37.32 42.6402C37.32 41.4626 37.7878 40.3333 38.6205 39.5006C39.4531 38.668 40.5824 38.2002 41.76 38.2002C42.9376 38.2002 44.0669 38.668 44.8996 39.5006C45.7322 40.3333 46.2 41.4626 46.2 42.6402C46.2 42.7675 46.1494 42.8896 46.0594 42.9796C45.9694 43.0696 45.8473 43.1202 45.72 43.1202ZM38.3136 42.1602H45.2064C45.0901 41.3289 44.6772 40.5677 44.0438 40.0169C43.4105 39.466 42.5994 39.1626 41.76 39.1626C40.9206 39.1626 40.1095 39.466 39.4762 40.0169C38.8429 40.5677 38.43 41.3289 38.3136 42.1602Z" fill="#254828"/>
<path d="M47.9424 47.6803H35.5824C35.3783 47.6918 35.174 47.6616 34.9819 47.5914C34.7899 47.5213 34.6142 47.4126 34.4656 47.2722C34.317 47.1318 34.1986 46.9625 34.1177 46.7748C34.0368 46.587 33.9951 46.3847 33.9951 46.1803C33.9951 45.9758 34.0368 45.7735 34.1177 45.5858C34.1986 45.398 34.317 45.2287 34.4656 45.0883C34.6142 44.9479 34.7899 44.8393 34.9819 44.7691C35.174 44.6989 35.3783 44.6687 35.5824 44.6803H47.9424C48.3256 44.7019 48.6859 44.8694 48.9495 45.1483C49.2131 45.4273 49.3599 45.7965 49.3599 46.1803C49.3599 46.564 49.2131 46.9332 48.9495 47.2122C48.6859 47.4911 48.3256 47.6586 47.9424 47.6803ZM35.5824 45.6403C35.5072 45.6332 35.4314 45.6418 35.3597 45.6658C35.2881 45.6897 35.2222 45.7283 35.1664 45.7791C35.1105 45.8299 35.0659 45.8919 35.0353 45.961C35.0048 46.03 34.989 46.1047 34.989 46.1803C34.989 46.2558 35.0048 46.3305 35.0353 46.3996C35.0659 46.4686 35.1105 46.5306 35.1664 46.5814C35.2222 46.6322 35.2881 46.6708 35.3597 46.6948C35.4314 46.7187 35.5072 46.7274 35.5824 46.7203H47.9424C48.0768 46.7076 48.2017 46.6452 48.2926 46.5453C48.3835 46.4455 48.4338 46.3153 48.4338 46.1803C48.4338 46.0452 48.3835 45.9151 48.2926 45.8152C48.2017 45.7153 48.0768 45.6529 47.9424 45.6403H35.5824Z" fill="#254828"/>
<path d="M47.9424 51.6787H35.5824C35.3783 51.6902 35.174 51.66 34.9819 51.5898C34.7899 51.5197 34.6142 51.411 34.4656 51.2706C34.317 51.1302 34.1986 50.9609 34.1177 50.7732C34.0368 50.5854 33.9951 50.3831 33.9951 50.1787C33.9951 49.9742 34.0368 49.7719 34.1177 49.5842C34.1986 49.3964 34.317 49.2271 34.4656 49.0867C34.6142 48.9463 34.7899 48.8377 34.9819 48.7675C35.174 48.6973 35.3783 48.6671 35.5824 48.6787H47.9424C48.3256 48.7004 48.6859 48.8678 48.9495 49.1468C49.2131 49.4257 49.3599 49.7949 49.3599 50.1787C49.3599 50.5624 49.2131 50.9317 48.9495 51.2106C48.6859 51.4895 48.3256 51.657 47.9424 51.6787ZM35.5824 49.6387C35.5072 49.6316 35.4314 49.6403 35.3597 49.6642C35.2881 49.6881 35.2222 49.7267 35.1664 49.7775C35.1105 49.8284 35.0659 49.8903 35.0353 49.9594C35.0048 50.0284 34.989 50.1031 34.989 50.1787C34.989 50.2542 35.0048 50.3289 35.0353 50.398C35.0659 50.467 35.1105 50.529 35.1664 50.5798C35.2222 50.6307 35.2881 50.6693 35.3597 50.6932C35.4314 50.7171 35.5072 50.7258 35.5824 50.7187H47.9424C48.0768 50.706 48.2017 50.6436 48.2926 50.5437C48.3835 50.4439 48.4338 50.3137 48.4338 50.1787C48.4338 50.0436 48.3835 49.9135 48.2926 49.8136C48.2017 49.7137 48.0768 49.6514 47.9424 49.6387H35.5824Z" fill="#254828"/>
</svg>
