<svg width="142" height="19" viewBox="0 0 142 19" fill="none" xmlns="http://www.w3.org/2000/svg">
<path d="M21 8.00002C21 9.64453 20.5944 11.2637 19.8192 12.714C19.044 14.1643 17.9231 15.4011 16.5557 16.3147C15.1883 17.2284 13.6168 17.7907 11.9802 17.9519C10.3436 18.1131 8.6925 17.8681 7.17317 17.2388C5.65384 16.6095 4.31316 15.6152 3.2699 14.344C2.22663 13.0727 1.51298 11.5638 1.19215 9.95093C0.87132 8.33801 0.953221 6.67087 1.4306 5.09718C1.90797 3.52348 2.76609 2.0918 3.92893 0.928955" stroke="#F79020"/>
<circle cx="11" cy="8" r="8" fill="white"/>
<circle cx="11" cy="8" r="7" fill="#254828"/>
<circle cx="42" cy="8" r="7" fill="#C4C4C4"/>
<circle cx="73" cy="8" r="7" fill="#C4C4C4"/>
<circle cx="104" cy="8" r="7" fill="#C4C4C4"/>
<circle cx="135" cy="8" r="7" fill="#C4C4C4"/>
</svg>
