<svg width="1440" height="340" viewBox="0 0 1440 340" fill="none" xmlns="http://www.w3.org/2000/svg">
<g style="mix-blend-mode:soft-light" opacity="0.6">
<path d="M1214.03 51.1486L1212.27 49.0105C1219.67 42.7607 1278.06 -16.174 1284.75 -22.9172C1288.09 -26.3162 1290.94 -28.8929 1293.19 -30.9762C1297.47 -34.9234 1300.04 -37.2808 1300.1 -39.3641C1300.15 -41.4474 1296.1 -45.9977 1288.09 -53.7825C1284.2 -57.5653 1279.32 -62.2801 1273.4 -68.3654C1258.27 -83.8803 1224.39 -118.2 1216.49 -125.327L1218.3 -127.355C1226.31 -120.173 1260.19 -85.7991 1275.32 -70.2842C1281.24 -64.2537 1286.28 -59.3196 1290.01 -55.7561C1299.11 -46.8748 1302.89 -43.2565 1302.84 -39.3093C1302.79 -35.362 1300.04 -33.498 1295.06 -28.8929C1292.81 -26.8644 1290.01 -24.2878 1286.83 -21.0532C1280.03 -14.2552 1221.54 44.7892 1214.03 51.1486Z" fill="#F3F3F3"/>
<path d="M1167.32 44.9532C1154.05 31.3023 1103.01 -19.5187 1102.57 -19.9572C1099.12 -23.4111 1096.05 -26.0974 1093.64 -28.2903C1088.15 -33.2792 1085.14 -35.9655 1085.08 -39.2549C1085.03 -42.5442 1089.74 -47.7524 1100.87 -57.8947C1125.76 -80.2721 1149.34 -104.068 1171.48 -129.165L1173.57 -127.355C1151.34 -102.125 1127.69 -78.1833 1102.74 -55.647C1092.81 -46.656 1087.82 -42.1605 1087.82 -39.2001C1087.82 -36.8975 1090.73 -34.266 1095.44 -30.0446C1097.91 -27.7969 1100.93 -25.0557 1104.49 -21.6019C1104.93 -21.1633 1155.97 29.7124 1169.29 43.3633L1167.32 44.9532Z" fill="#F3F3F3"/>
<path d="M930.317 334.803L928.563 332.72C936.457 326.086 1000.55 261.45 1001.2 260.627C1004.44 257.393 1007.23 254.761 1009.48 252.733C1013.76 248.786 1016.33 246.428 1016.39 244.29C1016.44 242.152 1012.39 237.711 1004.38 229.926C1000.49 226.089 995.612 221.374 989.691 215.344C974.56 199.829 940.789 165.564 932.784 158.382L934.594 156.354C942.653 163.536 976.533 197.91 991.664 213.425C997.53 219.455 1002.63 224.389 1006.3 227.953C1015.4 236.779 1019.19 240.452 1019.13 244.4C1019.08 248.347 1016.33 250.211 1011.35 254.761C1009.1 256.845 1006.3 259.421 1003.12 262.601C1002.52 263.204 938.267 328.114 930.317 334.803Z" fill="#F3F3F3"/>
<path d="M883.609 328.662C870.396 315.066 819.356 264.245 818.863 263.751C815.409 260.298 812.393 257.556 809.926 255.364C804.444 250.429 801.429 247.743 801.429 244.399C801.429 241.055 806.034 235.847 817.163 225.759C842.075 203.387 865.67 179.591 887.83 154.489L889.858 156.298C867.631 181.529 843.982 205.471 819.027 228.007C809.104 236.998 804.17 241.493 804.17 244.454C804.17 246.756 807.021 249.333 811.79 253.609C814.257 255.857 817.273 258.598 820.781 262.052C821.275 262.545 872.37 313.421 885.582 327.017L883.609 328.662Z" fill="#F3F3F3"/>
<path d="M362.955 51.1486L361.2 49.0105C368.601 42.7607 426.988 -16.174 433.622 -22.9172C437.021 -26.3162 439.817 -28.8929 442.119 -30.9762C446.395 -34.9234 448.972 -37.2808 448.972 -39.3641C448.972 -41.4474 445.025 -45.9977 437.021 -53.7825C433.073 -57.5653 428.249 -62.2801 422.273 -68.3654C407.142 -83.8803 373.316 -118.2 365.367 -125.327L367.231 -127.355C375.235 -120.173 409.116 -85.7991 424.247 -70.2842C430.168 -64.2537 435.211 -59.3196 438.939 -55.7561C448.04 -46.8748 451.768 -43.2565 451.713 -39.3093C451.658 -35.362 448.972 -33.498 443.928 -28.8929C441.735 -26.8644 438.939 -24.2878 435.76 -21.0532C428.962 -14.2552 370.465 44.7892 362.955 51.1486Z" fill="#F3F3F3"/>
<path d="M316.246 44.9532C303.252 31.3023 251.938 -19.5187 251.445 -19.9572C248.046 -23.4111 244.976 -26.0974 242.563 -28.2903C237.081 -33.2792 234.011 -35.9655 234.011 -39.2549C234.011 -42.5442 238.616 -47.7524 249.8 -57.8947C274.69 -80.2721 298.266 -104.068 320.412 -129.165L322.44 -127.355C300.243 -102.097 276.593 -78.1536 251.609 -55.647C241.741 -46.656 236.752 -42.1605 236.752 -39.2001C236.752 -36.8975 239.658 -34.266 244.373 -30.0446C246.84 -27.7969 249.855 -25.0557 253.418 -21.6019C253.857 -21.1633 304.897 29.7124 318.164 43.3633L316.246 44.9532Z" fill="#F3F3F3"/>
<path d="M79.2458 51.1486L77.4915 49.0105C85.3311 42.4318 149.474 -22.2593 150.077 -23.0269C153.312 -26.3162 156.162 -28.8929 158.41 -30.9762C162.686 -34.9234 165.263 -37.2808 165.318 -39.3641C165.373 -41.4474 161.316 -45.9977 153.312 -53.7825C149.419 -57.5653 144.54 -62.2801 138.619 -68.3654C124.091 -83.2225 89.6622 -118.145 81.7128 -125.327L83.522 -127.355C91.5261 -120.173 126.065 -85.1413 140.538 -70.2842C146.459 -64.2537 151.502 -59.3196 155.23 -55.7561C164.331 -46.8748 168.114 -43.2565 168.059 -39.3093C168.004 -35.362 165.263 -33.498 160.274 -28.8929C158.026 -26.8644 155.23 -24.2878 152.051 -21.0532C151.448 -20.505 87.1951 44.4602 79.2458 51.1486Z" fill="#F3F3F3"/>
<path d="M32.5366 44.9532C19.3791 31.4668 -31.7708 -19.5187 -32.2093 -19.9572C-35.6632 -23.4111 -38.7333 -26.0974 -41.1455 -28.2903C-46.6278 -33.2792 -49.6979 -35.9655 -49.6979 -39.2549C-49.6979 -42.5442 -45.0928 -47.7524 -33.9089 -57.8947C-9.01908 -80.2721 14.5575 -104.068 36.7031 -129.165L38.7864 -127.355C16.5589 -102.125 -7.08998 -78.1833 -32.0449 -55.647C-41.9678 -46.656 -46.9567 -42.1605 -46.9567 -39.2001C-46.9567 -36.8975 -44.0511 -34.266 -39.3363 -30.0446C-36.8693 -27.7969 -33.854 -25.0557 -30.2905 -21.6019C-29.852 -21.1633 21.3527 29.8769 34.5102 43.3633L32.5366 44.9532Z" fill="#F3F3F3"/>
<path d="M646.663 334.803L644.854 332.72C652.749 326.086 716.837 261.45 717.495 260.627C720.729 257.393 723.525 254.761 725.773 252.733C730.104 248.786 732.681 246.428 732.681 244.29C732.681 242.152 728.733 237.711 720.674 229.926C716.782 226.089 711.903 221.374 705.982 215.344C691.509 200.487 657.08 165.509 649.076 158.382L650.885 156.354C658.944 163.536 693.427 198.513 707.955 213.425C713.876 219.455 718.92 224.389 722.593 227.953C731.694 236.779 735.477 240.452 735.422 244.4C735.367 248.347 732.626 250.211 727.637 254.761C725.389 256.845 722.648 259.421 719.413 262.601C718.81 263.204 654.558 328.114 646.663 334.803Z" fill="#F3F3F3"/>
<path d="M599.899 328.662C586.797 315.121 535.647 264.245 535.154 263.751C531.7 260.298 528.684 257.556 526.217 255.364C520.735 250.429 517.72 247.743 517.72 244.399C517.72 241.055 522.325 235.847 533.454 225.759C558.366 203.387 581.961 179.591 604.121 154.489L606.149 156.298C583.937 181.543 560.287 205.485 535.318 228.007C525.395 236.998 520.461 241.493 520.461 244.454C520.461 246.756 523.312 249.333 528.081 253.609C530.548 255.857 533.564 258.598 537.072 262.052C537.621 262.545 588.716 313.476 601.873 327.017L599.899 328.662Z" fill="#F3F3F3"/>
<path d="M362.955 334.803L361.2 332.72C369.04 326.086 433.183 261.45 433.786 260.627C437.021 257.393 439.817 254.761 442.119 252.733C446.395 248.786 448.972 246.428 448.972 244.29C448.972 242.152 445.025 237.711 437.021 229.926C433.073 226.089 428.249 221.374 422.273 215.344C407.142 199.829 373.316 165.509 365.367 158.382L367.231 156.354C375.235 163.536 409.116 197.91 424.247 213.425C430.168 219.455 435.211 224.389 438.885 227.953C448.04 236.779 451.768 240.452 451.713 244.4C451.658 248.347 448.972 250.211 443.928 254.761C441.735 256.845 438.939 259.421 435.76 262.601C435.102 263.204 370.904 328.114 362.955 334.803Z" fill="#F3F3F3"/>
<path d="M316.246 328.662C305.884 317.697 272.058 284.255 252.815 265.067L251.445 263.697C248.046 260.298 244.976 257.556 242.563 255.364C237.081 250.429 234.011 247.743 234.011 244.399C234.011 241.055 238.616 235.847 249.8 225.759C274.69 203.382 298.266 179.585 320.412 154.489L322.44 156.298C300.23 181.407 276.58 205.203 251.609 227.568C241.741 236.559 236.752 241.055 236.752 244.015C236.752 246.318 239.658 248.894 244.373 253.171C246.84 255.418 249.855 258.159 253.418 261.613L254.789 262.984C273.977 282.172 307.803 315.888 318.164 326.579L316.246 328.662Z" fill="#F3F3F3"/>
<path d="M79.2458 334.803L77.4915 332.72C85.3311 326.086 149.474 261.45 150.077 260.627C153.312 257.393 156.162 254.761 158.41 252.733C162.686 248.786 165.263 246.428 165.318 244.29C165.373 242.152 161.316 237.711 153.312 229.926C149.419 226.089 144.54 221.374 138.619 215.344C123.488 199.829 89.6622 165.564 81.7128 158.382L83.522 156.354C91.5261 163.536 125.407 197.91 140.593 213.425C146.459 219.455 151.557 224.389 155.23 227.953C164.331 236.779 168.114 240.452 168.059 244.4C168.004 248.347 165.263 250.211 160.274 254.761C158.026 256.845 155.23 259.421 152.051 262.601C151.448 263.204 87.1951 328.114 79.2458 334.803Z" fill="#F3F3F3"/>
<path d="M32.5366 328.662C19.3791 315.121 -31.7159 264.245 -32.2093 263.751C-35.6632 260.298 -38.7333 257.556 -41.1455 255.364C-46.6278 250.429 -49.6979 247.743 -49.6979 244.399C-49.6979 241.055 -45.0928 235.847 -33.9089 225.759C-9.01908 203.382 14.5575 179.585 36.7031 154.489L38.7864 156.298C16.5462 181.379 -7.1024 205.174 -32.0449 227.568C-41.9678 236.559 -46.9567 241.055 -46.9567 244.015C-46.9567 246.318 -44.0511 248.894 -39.3363 253.171C-36.8693 255.418 -33.854 258.159 -30.2905 261.613C-29.7971 262.107 21.2979 312.982 34.5102 326.579L32.5366 328.662Z" fill="#F3F3F3"/>
<path d="M646.663 51.1486L644.854 49.0105C652.31 42.7607 710.642 -16.174 717.33 -22.9172C720.729 -26.3162 723.525 -28.8929 725.773 -30.9762C730.104 -34.9234 732.681 -37.2808 732.681 -39.3641C732.681 -41.4474 728.733 -45.9977 720.674 -53.7825C716.782 -57.5653 711.903 -62.2801 705.982 -68.3654C690.851 -83.8803 657.025 -118.2 649.076 -125.327L650.885 -127.355C658.889 -120.173 692.769 -85.7991 707.955 -70.2842C713.876 -64.2537 718.92 -59.3196 722.593 -55.7561C731.694 -46.8748 735.477 -43.2565 735.422 -39.3093C735.367 -35.362 732.626 -33.498 727.637 -28.8929C725.389 -26.8644 722.648 -24.2878 719.413 -21.0532C712.615 -14.2552 654.119 44.7892 646.663 51.1486Z" fill="#F3F3F3"/>
<path d="M599.899 44.9532C586.632 31.3023 535.592 -19.5187 535.154 -19.9572C531.7 -23.4111 528.684 -26.0974 526.217 -28.2903C520.735 -33.2792 517.72 -35.9655 517.72 -39.2549C517.72 -42.5442 522.325 -47.7524 533.454 -57.8947C558.366 -80.2666 581.961 -104.063 604.121 -129.165L606.149 -127.355C583.937 -102.111 560.287 -78.1685 535.318 -55.647C525.395 -46.656 520.461 -42.1605 520.461 -39.2001C520.461 -36.8975 523.312 -34.266 528.081 -30.0446C530.548 -27.7969 533.564 -25.0557 537.072 -21.6019C537.511 -21.1633 588.606 29.7124 601.873 43.3633L599.899 44.9532Z" fill="#F3F3F3"/>
<path d="M930.317 51.1486L928.563 49.0105C936.019 42.7607 994.351 -16.174 1001.04 -22.9172C1004.44 -26.3162 1007.23 -28.8929 1009.48 -30.9762C1013.76 -34.9234 1016.33 -37.2808 1016.39 -39.3641C1016.44 -41.4474 1012.39 -45.9977 1004.38 -53.7825C1000.49 -57.5653 995.612 -62.2801 989.691 -68.3654C974.56 -83.8803 940.734 -118.145 932.784 -125.327L934.594 -127.355C942.653 -120.118 976.533 -85.7991 991.664 -70.2842C997.53 -64.2537 1002.63 -59.3196 1006.3 -55.7561C1015.4 -46.8748 1019.19 -43.2565 1019.13 -39.3093C1019.08 -35.362 1016.33 -33.498 1011.35 -28.8929C1009.1 -26.8644 1006.3 -24.2878 1003.12 -21.0532C996.324 -14.2552 937.883 44.7892 930.317 51.1486Z" fill="#F3F3F3"/>
<path d="M883.609 44.9532C870.451 31.412 819.301 -19.5187 818.863 -19.9572C815.409 -23.4111 812.393 -26.0974 809.926 -28.2903C804.444 -33.2792 801.429 -35.9655 801.429 -39.2549C801.429 -42.5442 806.034 -47.7524 817.163 -57.8947C842.075 -80.2666 865.67 -104.063 887.83 -129.165L889.858 -127.355C867.631 -102.125 843.982 -78.1833 819.027 -55.647C809.104 -46.656 804.17 -42.1605 804.17 -39.2001C804.17 -36.8975 807.021 -34.266 811.79 -30.0446C814.257 -27.7969 817.273 -25.0557 820.781 -21.6019C821.22 -21.1633 872.425 29.822 885.582 43.3633L883.609 44.9532Z" fill="#F3F3F3"/>
<path d="M1214.03 334.803L1212.27 332.72C1220.11 326.086 1284.26 261.45 1284.86 260.627C1288.09 257.393 1290.94 254.816 1293.19 252.733C1297.47 248.786 1300.04 246.428 1300.1 244.29C1300.15 242.152 1296.1 237.711 1288.09 229.926C1284.2 226.144 1279.32 221.374 1273.4 215.344C1258.27 199.829 1224.44 165.509 1216.49 158.382L1218.3 156.354C1226.31 163.536 1260.19 197.91 1275.32 213.425C1281.24 219.455 1286.28 224.389 1290.01 227.953C1299.11 236.779 1302.89 240.452 1302.84 244.4C1302.79 248.347 1300.04 250.211 1295.06 254.761C1292.81 256.845 1290.01 259.421 1286.83 262.601C1286.17 263.204 1221.98 328.114 1214.03 334.803Z" fill="#F3F3F3"/>
<path d="M1167.32 328.662C1154.21 315.175 1103.06 264.245 1102.57 263.751C1099.12 260.298 1096.05 257.556 1093.64 255.364C1088.15 250.429 1085.14 247.743 1085.08 244.399C1085.03 241.055 1089.69 235.847 1100.87 225.759C1125.76 203.382 1149.34 179.585 1171.48 154.489L1173.57 156.298C1151.34 181.529 1127.69 205.471 1102.74 228.007C1092.81 236.998 1087.82 241.493 1087.82 244.454C1087.82 246.756 1090.73 249.333 1095.44 253.609C1097.91 255.857 1100.93 258.598 1104.49 262.052C1104.98 262.545 1156.13 313.531 1169.29 327.017L1167.32 328.662Z" fill="#F3F3F3"/>
<path d="M1472.52 76.5856C1467.03 59.2616 1458.87 51.6412 1437.27 31.1922C1422.41 17.1027 1399.93 -4.16861 1367.31 -39.3101L1366.43 -40.2969L1367.37 -41.2289C1384.53 -58.3885 1398.78 -72.5328 1410.62 -84.3198C1465.44 -138.759 1468.79 -142.048 1472.46 -156.96L1475.15 -156.302C1471.26 -140.623 1467.91 -137.334 1412.54 -82.3462C1400.92 -70.8333 1386.99 -56.9631 1370.22 -40.1872C1402.29 -5.70358 1424.44 15.2387 1439.18 29.2186C1461.11 49.9965 1469.39 57.7814 1475.09 75.7085L1472.52 76.5856Z" fill="#F3F3F3"/>
<path d="M1472.52 360.24C1467.03 342.971 1458.87 335.35 1437.27 314.901C1422.41 300.812 1399.93 279.541 1367.31 244.399L1366.43 243.412L1367.37 242.48C1384.64 225.211 1398.94 210.957 1410.84 199.17C1465.66 144.895 1468.79 141.661 1472.46 126.749L1475.15 127.407C1471.26 143.086 1467.97 146.321 1412.76 201.089L1370.22 243.467C1402.29 278.006 1424.49 298.948 1439.18 312.873C1461.11 333.706 1469.39 341.491 1475.09 359.418L1472.52 360.24Z" fill="#F3F3F3"/>
<path d="M965.404 365.174L963.814 362.981C965.514 361.446 1045.5 281.843 1050.93 276.416L1052.85 278.389C1052.02 279.212 966.61 364.406 965.404 365.174Z" fill="#F3F3F3"/>
<path d="M1136.89 363.749C1133.93 360.076 1109.48 335.845 1085.8 312.435C1073.73 300.429 1061.62 288.477 1052.13 278.993L1054.11 277.02L1087.71 310.461C1112.55 335.022 1135.96 358.212 1139.03 361.995L1136.89 363.749Z" fill="#F3F3F3"/>
<path d="M681.531 365.174L679.886 362.981C681.586 361.446 761.627 281.843 767 276.416L768.973 278.389C768.316 279.212 682.792 364.406 681.531 365.174Z" fill="#F3F3F3"/>
<path d="M853.237 363.749C850.221 360.076 825.825 335.899 802.196 312.49L768.425 278.993L770.399 277.02C779.883 286.559 791.999 298.565 804.115 310.516C828.895 335.077 852.25 358.212 855.32 361.995L853.237 363.749Z" fill="#F3F3F3"/>
<path d="M398.041 365.174L396.396 362.981C398.206 361.391 477.863 282.117 483.565 276.416L485.484 278.389C484.662 279.212 399.083 364.406 398.041 365.174Z" fill="#F3F3F3"/>
<path d="M569.527 363.749C566.512 360.076 542.116 335.899 518.542 312.545C506.426 300.539 494.31 288.532 484.771 278.993L486.69 277.02C496.229 286.559 508.345 298.565 520.461 310.571C545.186 335.077 568.541 358.212 571.666 361.995L569.527 363.749Z" fill="#F3F3F3"/>
<path d="M114.332 365.174L112.688 362.981C114.387 361.446 194.429 281.843 199.856 276.416L201.775 278.389C200.953 279.212 115.374 364.406 114.332 365.174Z" fill="#F3F3F3"/>
<path d="M285.819 363.749C282.858 360.076 258.407 335.845 234.778 312.435C222.663 300.484 210.547 288.477 201.062 278.993L202.981 277.02C212.52 286.559 224.91 298.565 236.697 310.516C261.477 335.022 284.887 358.212 287.957 361.995L285.819 363.749Z" fill="#F3F3F3"/>
<path d="M2.16454 363.749C-0.850723 360.076 -25.247 335.899 -48.8757 312.49L-82.6466 278.993L-80.7278 277.02C-71.1886 286.559 -59.0727 298.565 -46.9569 310.516C-22.2317 335.077 1.17771 358.212 4.2478 361.995L2.16454 363.749Z" fill="#F3F3F3"/>
<path d="M1336.94 211.341L1336.06 211.012H1335.68C1333.65 210.354 1333.65 210.354 1289.08 165.728L1249.17 125.762L1251.09 123.843L1291 163.754C1330.14 202.953 1334.86 207.613 1336.28 208.271C1342.75 201.582 1362.6 181.682 1381.84 162.439C1401.08 143.196 1420.22 124.063 1422.46 121.431L1424.49 123.295C1422.3 125.762 1403.55 144.512 1383.76 164.358C1363.97 184.203 1343.3 204.872 1337.6 210.847L1336.94 211.341Z" fill="#F3F3F3"/>
<path d="M1249.11 81.4656L1247.47 79.2727C1249.11 78.0666 1260.02 67.2117 1283.87 43.3637L1334.91 -7.56685L1335.9 -8.55371L1336.88 -7.56685C1356.4 12.0049 1372.9 28.2874 1386.23 41.3352C1406.4 61.236 1418.52 73.2422 1422.85 78.2859L1420.76 80.0402C1416.54 75.1062 1403.71 62.4421 1384.31 43.3089C1371.31 30.4255 1355.14 14.472 1336.01 -4.66124L1285.9 45.2825C1260.41 70.6655 1250.92 80.1499 1249.11 81.4656Z" fill="#F3F3F3"/>
<path d="M1249.11 365.175L1247.47 362.982C1249.11 361.776 1258.82 352.017 1282.28 328.663C1295.11 315.834 1312.27 298.674 1334.91 276.142L1335.9 275.155L1336.88 276.142C1356.44 295.696 1372.89 311.978 1386.23 324.989C1406.35 344.89 1418.52 356.896 1422.85 361.995L1420.76 363.749C1416.49 358.76 1404.32 346.809 1384.31 326.963C1371.31 314.134 1355.14 298.181 1336.01 279.048L1284.31 330.581C1259.31 355.471 1250.87 363.859 1249.11 365.175Z" fill="#F3F3F3"/>
<path d="M1053.23 211.341L1052.35 211.012C1052.35 211.012 1052.35 211.012 1051.97 211.012C1050 210.354 1050 210.354 1003.73 164.029L965.35 125.653L967.268 123.734L1005.64 162.11C1046.21 202.734 1050.98 207.503 1052.57 208.271C1059.15 201.473 1078.61 181.956 1097.47 163.097C1117.48 143.031 1136.34 124.117 1138.75 121.431L1140.84 123.295C1138.32 126.036 1119.4 144.95 1099.39 165.015C1079.38 185.081 1059.81 204.707 1053.89 210.847L1053.23 211.341Z" fill="#F3F3F3"/>
<path d="M965.404 81.4656L963.814 79.2727C965.404 78.0666 976.259 67.2117 1000.05 43.4733L1051.26 -7.56685L1052.19 -8.55371L1053.18 -7.56685C1072.75 12.0049 1089.25 28.3422 1102.52 41.39C1122.64 61.2359 1134.75 73.2422 1139.08 78.2859L1137 80.0402C1132.78 75.1062 1120.55 63.1548 1100.6 43.3089C1087.6 30.4803 1071.43 14.5268 1052.24 -4.66124C1031.14 16.336 1014.69 32.7828 1002.03 45.447C976.698 70.7204 967.213 80.1499 965.404 81.4656Z" fill="#F3F3F3"/>
<path d="M-81.5501 211.341L-82.4272 211.012H-82.811C-84.8394 210.354 -84.8394 210.354 -131.384 163.7L-169.322 125.598L-167.403 123.679L-129.465 161.616C-88.5674 202.514 -83.7978 207.284 -82.2079 208.106C-75.6292 201.308 -56.167 181.791 -37.3079 162.932C-17.2975 142.922 1.56157 123.953 3.97379 121.267L6.05707 123.131C3.5352 125.872 -15.3787 144.786 -35.3891 164.851C-55.3995 184.916 -75.0261 204.543 -80.8922 210.683L-81.5501 211.341Z" fill="#F3F3F3"/>
<path d="M-169.376 81.4656L-170.966 79.2727C-169.376 78.0666 -158.521 67.2665 -134.783 43.5281L-83.5237 -7.56685L-82.5917 -8.55371L-81.6049 -7.56685C-61.9782 12.0598 -45.5313 28.3605 -32.2642 41.3352C-12.1441 61.236 -0.0282593 73.1874 4.30276 78.2859L2.21948 80.0402C-2.00189 75.0514 -14.2274 63.1 -34.183 43.3089C-47.176 30.4803 -63.3488 14.5268 -82.5368 -4.66124C-103.644 16.336 -120.145 32.8376 -132.81 45.5018C-158.083 70.7203 -167.567 80.1499 -169.376 81.4656Z" fill="#F3F3F3"/>
<path d="M202.159 211.341L201.282 211.012H200.898C198.87 210.354 198.87 210.354 152.599 164.029L114.223 125.653L116.142 123.734L154.518 162.11C195.087 202.734 199.856 207.503 201.446 208.271C208.025 201.473 227.487 181.956 246.346 163.097C266.302 143.031 285.216 124.117 287.628 121.431L289.656 123.295C287.189 126.036 268.275 144.95 248.265 165.015C228.255 185.081 208.628 204.707 202.762 210.847L202.159 211.341Z" fill="#F3F3F3"/>
<path d="M114.332 81.4656L112.688 79.2727C114.332 78.0666 125.407 66.9924 149.693 42.7606C162.467 29.9868 179.024 13.4303 200.13 -7.56685L201.117 -8.55371L202.104 -7.56685C221.676 12.0049 238.178 28.3422 251.445 41.39C271.565 61.2359 283.681 73.2422 288.012 78.2859L285.928 80.0402C281.707 75.1062 269.481 63.1548 249.526 43.3089C236.533 30.4803 220.36 14.5268 201.172 -4.66124L151.831 44.6794C125.79 70.5011 116.142 80.1499 114.332 81.4656Z" fill="#F3F3F3"/>
<path d="M485.868 211.341L484.99 211.012H484.607C482.578 210.354 482.578 210.354 435.979 163.7L398.041 125.762L400.015 123.843L437.952 161.781C478.795 202.679 483.565 207.448 485.155 208.271C491.788 201.473 511.251 181.956 530.055 163.097C550.065 143.031 568.979 124.117 571.391 121.431L573.42 123.295C570.953 126.036 552.039 144.95 532.028 165.015C512.018 185.081 492.391 204.707 486.525 210.847L485.868 211.341Z" fill="#F3F3F3"/>
<path d="M398.041 81.4656L396.396 79.2727C398.041 78.0666 408.951 67.2117 432.799 43.3637C445.628 30.5351 462.349 13.8141 483.839 -7.56685L484.826 -8.55371L485.758 -7.56685C505.33 12.0049 521.831 28.2874 535.099 41.3352C555.273 61.236 567.389 73.2422 571.666 78.2859L569.582 80.0402C565.361 75.1062 552.587 62.4421 533.18 43.3089C520.187 30.4255 504.014 14.472 484.881 -4.66124L434.827 45.2825C409.335 70.6655 399.85 80.1499 398.041 81.4656Z" fill="#F3F3F3"/>
<path d="M681.531 81.4655L679.886 79.2726C681.64 77.6828 761.627 -1.86538 767 -7.23804L768.973 -5.3192C768.316 -4.49685 682.792 80.6432 681.531 81.4655Z" fill="#F3F3F3"/>
<path d="M769.577 211.341L768.7 211.012H768.261C766.288 210.354 766.288 210.354 720.072 164.083L681.696 125.707L683.669 123.789L722.045 162.165C762.614 202.734 767.329 207.448 768.919 208.271C775.443 201.582 795.399 181.517 814.751 162.165C834.104 142.812 853.127 123.789 855.156 121.431L857.184 123.295C854.991 125.707 836.406 144.347 816.67 164.083C796.934 183.82 775.991 204.872 770.29 210.847L769.577 211.341Z" fill="#F3F3F3"/>
<path d="M853.237 80.0406C850.221 76.3674 825.825 52.1905 802.196 28.7811C790.08 16.8297 777.965 4.76861 768.425 -4.71577L770.399 -6.63452C779.883 2.84985 791.999 14.8561 804.115 26.8623C828.895 51.3682 852.25 74.5035 855.32 78.2863L853.237 80.0406Z" fill="#F3F3F3"/>
<path d="M1436.17 244.18L1433.87 242.7C1438.28 236.653 1443.38 231.134 1449.05 226.253C1459.03 216.933 1469.34 207.284 1472.46 193.359L1475.15 193.962C1471.8 208.545 1460.73 218.962 1450.92 228.117C1445.39 232.878 1440.44 238.269 1436.17 244.18Z" fill="#F3F3F3"/>
<path d="M1472.57 293.74C1471.52 291.54 1470.62 289.269 1469.89 286.942C1468.78 282.661 1466.65 278.711 1463.69 275.429C1448.72 261.23 1441.76 253.5 1437.81 249.443C1433.87 245.386 1433.76 244.947 1431.02 244.838H1430.08V242.097H1430.96C1434.8 242.097 1435.18 242.7 1439.68 247.579C1444.17 252.458 1450.64 259.311 1465.45 273.455C1468.75 277.019 1471.1 281.355 1472.3 286.065C1473.01 288.277 1473.87 290.438 1474.87 292.534L1472.57 293.74Z" fill="#F3F3F3"/>
<path d="M1472.57 10.0859C1471.53 7.88213 1470.63 5.61104 1469.89 3.28778C1468.79 -1.01279 1466.66 -4.98241 1463.69 -8.27987C1448.72 -22.479 1441.76 -30.2091 1437.81 -34.266C1433.87 -38.3229 1433.76 -38.7066 1431.02 -38.8162H1430.08V-41.5574H1430.96C1434.8 -41.5574 1435.18 -41.0091 1439.68 -36.0751C1444.17 -31.141 1450.64 -24.343 1465.45 -10.1987C1468.74 -6.62658 1471.09 -2.29428 1472.3 2.41059C1473.02 4.63731 1473.88 6.81631 1474.87 8.93454L1472.57 10.0859Z" fill="#F3F3F3"/>
<path d="M1192.97 296.975C1191.28 285.297 1205.2 273.291 1217.54 262.656C1226.31 255.145 1234.53 248.018 1234.69 243.139C1234.71 242.578 1234.6 242.022 1234.37 241.51C1234.14 240.998 1233.8 240.543 1233.38 240.178C1224.99 231.9 1218.36 225.266 1213.15 220.058C1194.18 200.98 1194.13 200.98 1190.4 204.434C1189.03 205.694 1157.5 236.779 1152.46 244.235L1150.16 242.7C1155.64 234.641 1188.53 202.624 1188.53 202.405C1194.02 196.923 1195 197.964 1215.07 218.084C1220.55 223.567 1226.91 229.981 1235.3 238.205C1235.99 238.844 1236.54 239.626 1236.91 240.495C1237.28 241.365 1237.46 242.304 1237.44 243.248C1237.44 249.334 1228.94 256.461 1219.34 264.739C1207.56 274.881 1194.18 286.394 1195.72 296.591L1192.97 296.975Z" fill="#F3F3F3"/>
<path d="M58.8518 3.89065C49.4417 -3.02243 40.8682 -11.0072 33.3043 -19.9025C24.697 -29.1676 15.7609 -38.7068 11.3751 -38.9261V-41.6672C16.364 -41.6672 23.5458 -33.9372 34.949 -21.7665C42.3756 -13.0841 50.7414 -5.25147 59.8934 1.58809L58.8518 3.89065Z" fill="#F3F3F3"/>
<path d="M58.1937 13.3207C56.4942 1.58862 70.4741 -10.4176 82.7544 -21.0533C91.5261 -28.564 99.7496 -35.6362 99.914 -40.5155C99.932 -41.0842 99.8232 -41.6497 99.5956 -42.1712C99.3681 -42.6927 99.0274 -43.157 98.5983 -43.5307C90.2104 -51.8089 83.5768 -58.4426 78.3686 -63.6507C59.3999 -82.7291 59.345 -82.7291 55.6171 -79.2753C54.1369 -77.9047 22.7233 -46.9297 17.6796 -39.4738L15.377 -41.0089C20.8593 -49.0678 53.479 -81.0296 53.7531 -81.3037C59.2354 -86.5119 60.2222 -85.7444 80.2874 -65.6244C85.7697 -60.1421 92.1292 -53.7278 100.517 -45.4495C101.214 -44.8224 101.766 -44.0515 102.135 -43.1901C102.504 -42.3287 102.681 -41.3974 102.655 -40.4606C102.655 -34.3752 94.1576 -27.2483 84.5636 -18.97C72.7767 -8.82774 59.3999 2.68507 60.9349 12.8821L58.1937 13.3207Z" fill="#F3F3F3"/>
<path d="M342.561 3.89065C333.15 -3.02243 324.577 -11.0072 317.013 -19.9025C308.351 -29.1676 299.415 -38.7068 295.084 -38.9261V-41.6672C300.018 -41.6672 307.255 -33.9372 318.603 -21.7665C326.061 -13.0946 334.444 -5.26332 343.602 1.58809L342.561 3.89065Z" fill="#F3F3F3"/>
<path d="M341.903 13.3206C340.148 1.58852 354.128 -10.4177 366.463 -21.0534C375.18 -28.5641 383.458 -35.6363 383.623 -40.5156C383.63 -41.0827 383.516 -41.6448 383.289 -42.1646C383.062 -42.6845 382.728 -43.1501 382.307 -43.5308C373.919 -51.809 367.286 -58.3878 362.077 -63.6508C343.054 -82.7292 343.054 -82.7292 339.326 -79.2754C337.846 -77.9048 306.432 -46.9298 301.388 -39.4739L299.086 -41.009C304.568 -49.0679 337.133 -81.0297 337.462 -81.3038C342.944 -86.512 343.931 -85.7445 363.996 -65.5696C369.479 -60.0873 375.838 -53.7279 384.226 -45.4496C384.922 -44.8225 385.474 -44.0516 385.843 -43.1902C386.213 -42.3288 386.39 -41.3975 386.364 -40.4607C386.364 -34.3753 377.866 -27.2484 368.272 -18.9701C356.485 -8.82784 343.109 2.68496 344.644 12.882L341.903 13.3206Z" fill="#F3F3F3"/>
<path d="M626.215 3.89065C616.817 -3.03679 608.245 -11.0201 600.667 -19.9025C592.06 -29.1676 583.124 -38.7068 579.012 -38.9261V-41.6672C584.001 -41.6672 591.238 -33.9372 602.586 -21.7665C610.03 -13.0817 618.415 -5.249 627.585 1.58809L626.215 3.89065Z" fill="#F3F3F3"/>
<path d="M625.611 13.3207C623.857 1.58862 637.837 -10.4176 650.172 -21.0533C658.889 -28.564 667.167 -35.6362 667.277 -40.5155C667.305 -41.0804 667.207 -41.6445 666.989 -42.1663C666.771 -42.6881 666.438 -43.1543 666.016 -43.5307C657.573 -51.8089 650.994 -58.4426 645.731 -63.6507C626.763 -82.7291 626.763 -82.7291 622.98 -79.2753C621.609 -77.9595 590.086 -46.9846 585.042 -39.4738L582.795 -41.0089C588.277 -49.0678 620.842 -81.0296 621.171 -81.3037C626.653 -86.5119 627.64 -85.7444 647.705 -65.6244C652.913 -60.1421 659.492 -53.7278 667.935 -45.4495C668.633 -44.8269 669.183 -44.0554 669.544 -43.192C669.904 -42.3285 670.066 -41.3951 670.018 -40.4606C670.018 -34.3752 661.575 -27.2483 651.981 -18.97C640.139 -8.82774 626.817 2.68507 628.298 12.8821L625.611 13.3207Z" fill="#F3F3F3"/>
<path d="M909.924 3.89065C900.514 -3.02243 891.94 -11.0072 884.376 -19.9025C875.769 -29.1676 866.833 -38.7068 862.721 -38.9261V-41.6672C867.71 -41.6672 874.892 -33.9372 886.295 -21.7665C893.726 -13.069 902.112 -5.23494 911.294 1.58809L909.924 3.89065Z" fill="#F3F3F3"/>
<path d="M625.611 296.975C623.857 285.297 637.837 273.291 650.172 262.656C658.889 255.145 667.167 248.018 667.277 243.139C667.301 242.582 667.2 242.028 666.982 241.515C666.764 241.003 666.434 240.546 666.016 240.178C657.573 231.9 650.994 225.266 645.731 220.003C626.708 201.254 626.708 201.254 622.98 204.434C621.664 205.694 590.086 236.779 585.042 244.235L582.795 242.7C588.277 234.641 620.842 202.624 621.171 202.405C626.653 196.923 627.64 197.964 647.705 218.084C652.913 223.567 659.492 229.926 667.935 238.205C668.635 238.838 669.184 239.619 669.545 240.492C669.905 241.364 670.067 242.306 670.018 243.248C670.018 249.334 661.575 256.461 651.981 264.739C640.139 274.881 626.817 286.394 628.298 296.591L625.611 296.975Z" fill="#F3F3F3"/>
<path d="M909.321 13.3207C907.566 1.58862 921.546 -10.4176 933.881 -21.0533C942.598 -28.564 950.821 -35.6362 950.986 -40.5155C951.003 -41.079 950.9 -41.6396 950.682 -42.1597C950.465 -42.6798 950.138 -43.1473 949.725 -43.5307C941.282 -51.8089 934.649 -58.4426 929.441 -63.6507C910.472 -82.7291 910.472 -82.7291 906.689 -79.2753C905.209 -77.9047 873.795 -46.9297 868.751 -39.4738L866.504 -41.0089C871.986 -49.0678 904.551 -81.0296 904.88 -81.3037C910.362 -86.5119 911.349 -85.7444 931.414 -65.6244C936.896 -60.1421 943.256 -53.7278 951.699 -45.4495C952.377 -44.8108 952.913 -44.0365 953.272 -43.1769C953.631 -42.3173 953.804 -41.3918 953.782 -40.4606C953.782 -34.3752 945.284 -27.2483 935.69 -18.97C923.903 -8.82774 910.527 2.68507 912.062 12.8821L909.321 13.3207Z" fill="#F3F3F3"/>
<path d="M1193.63 3.89065C1184.22 -3.02243 1175.65 -11.0072 1168.08 -19.9025C1159.42 -29.1676 1150.49 -38.7068 1146.16 -38.9261V-41.6672C1151.14 -41.6672 1158.33 -33.9372 1169.73 -21.7665C1177.16 -13.0841 1185.52 -5.25147 1194.67 1.58809L1193.63 3.89065Z" fill="#F3F3F3"/>
<path d="M1192.97 13.3206C1191.28 1.58852 1205.2 -10.4177 1217.54 -21.0534C1226.31 -28.5641 1234.53 -35.6363 1234.69 -40.5156C1234.71 -41.0843 1234.6 -41.6498 1234.38 -42.1713C1234.15 -42.6928 1233.81 -43.1571 1233.38 -43.5308C1224.99 -51.809 1218.36 -58.3878 1213.15 -63.6508C1194.18 -82.7292 1194.13 -82.7292 1190.4 -79.2754C1188.97 -77.9596 1157.5 -46.9847 1152.46 -39.4739L1150.16 -41.009C1155.64 -49.0679 1188.53 -81.0297 1188.53 -81.3038C1194.02 -86.512 1195 -85.7445 1215.07 -65.5696C1220.55 -60.0873 1226.91 -53.7279 1235.3 -45.4496C1235.99 -44.8225 1236.55 -44.0516 1236.92 -43.1902C1237.28 -42.3288 1237.46 -41.3975 1237.44 -40.4607C1237.44 -34.3753 1228.94 -27.2484 1219.34 -18.9701C1207.56 -8.82784 1194.18 2.68496 1195.72 12.882L1192.97 13.3206Z" fill="#F3F3F3"/>
<path d="M341.903 296.975C340.148 285.298 354.128 273.291 366.463 262.656C375.18 255.145 383.458 248.018 383.623 243.139C383.625 242.58 383.51 242.028 383.283 241.517C383.056 241.007 382.723 240.551 382.307 240.178C373.919 231.9 367.286 225.321 362.077 220.058C343.054 200.925 343.054 200.98 339.326 204.434C337.901 205.749 306.432 236.834 301.388 244.235L299.086 242.7C304.568 234.586 337.462 202.679 337.462 202.405C342.944 196.923 343.931 197.965 363.996 218.139C369.479 223.348 375.838 229.981 384.226 238.205C384.921 238.845 385.471 239.626 385.84 240.496C386.209 241.365 386.387 242.304 386.364 243.248C386.364 249.334 377.866 256.461 368.272 264.739C356.485 274.881 343.109 286.394 344.644 296.591L341.903 296.975Z" fill="#F3F3F3"/>
<path d="M58.1937 296.975C56.4942 285.297 70.4741 273.291 82.7544 262.656C91.5261 255.145 99.7496 248.018 99.914 243.139C99.9276 242.578 99.8167 242.022 99.5891 241.51C99.3616 240.998 99.0231 240.543 98.5983 240.178C90.2104 231.9 83.5768 225.266 78.3686 220.003C59.3999 200.98 59.345 200.98 55.6171 204.434C54.1917 205.749 22.7233 236.834 17.6796 244.235L15.377 242.7C20.8593 234.586 53.479 202.679 53.7531 202.405C59.2354 196.923 60.2222 197.964 80.2874 218.084C85.7697 223.567 92.1292 229.981 100.517 238.205C101.212 238.844 101.762 239.626 102.131 240.495C102.5 241.365 102.679 242.304 102.655 243.248C102.655 249.334 94.1576 256.461 84.5636 264.739C72.7767 274.881 59.3999 286.394 60.9349 296.591L58.1937 296.975Z" fill="#F3F3F3"/>
<path d="M1193.63 287.655C1184.24 280.704 1175.67 272.703 1168.08 263.807C1159.42 254.596 1150.49 245.002 1146.16 244.838V242.097C1151.14 242.097 1158.33 249.772 1169.67 261.943C1177.12 270.628 1185.5 278.461 1194.67 285.297L1193.63 287.655Z" fill="#F3F3F3"/>
<path d="M909.32 296.975C907.895 287.435 909.32 286.01 935.526 260.627L950.383 246.154C951.424 245.112 951.973 244.564 951.973 244.07C951.973 241.932 945.668 235.847 930.537 221.154L912.719 203.83C911.513 202.679 910.691 202.515 910.143 202.569C907.73 202.569 904.66 206.023 900.823 210.299C899.178 212.108 897.424 214.082 895.34 216.111C893.257 218.139 889.858 221.264 887.336 223.786C880.393 229.916 874.126 236.771 868.642 244.235L866.394 242.7C871.961 235.07 878.34 228.066 885.418 221.812C888.104 219.29 890.9 216.769 893.367 214.137C895.834 211.506 897.04 210.245 898.849 208.655C903.29 203.666 906.524 200.102 910.088 199.993C910.953 200.003 911.806 200.188 912.598 200.536C913.389 200.885 914.102 201.39 914.693 202.021C921.71 208.929 927.631 214.63 932.51 219.345C950.438 236.779 954.44 240.945 954.769 244.235C954.685 245.024 954.431 245.786 954.024 246.467C953.617 247.149 953.066 247.734 952.411 248.182L937.444 262.765C911.623 287.874 910.91 288.806 912.061 296.755L909.32 296.975Z" fill="#F3F3F3"/>
<path d="M58.8518 287.655C49.4558 280.704 40.8845 272.703 33.3043 263.807C24.6422 254.596 15.7609 245.002 11.3751 244.838V242.097C16.364 242.097 23.5458 249.772 34.949 261.943C42.3607 270.639 50.7282 278.473 59.8934 285.297L58.8518 287.655Z" fill="#F3F3F3"/>
<path d="M342.561 287.655C333.165 280.704 324.593 272.703 317.013 263.807C308.351 254.596 299.415 245.002 295.084 244.838V242.097C300.018 242.097 307.255 249.772 318.603 261.943C326.046 270.628 334.431 278.461 343.602 285.297L342.561 287.655Z" fill="#F3F3F3"/>
<path d="M626.215 287.655C616.83 280.691 608.26 272.691 600.667 263.807C592.06 254.596 583.124 245.002 579.012 244.838V242.097C584.001 242.097 591.238 249.772 602.586 261.943C610.016 270.641 618.402 278.476 627.585 285.297L626.215 287.655Z" fill="#F3F3F3"/>
<path d="M909.924 287.655C900.528 280.704 891.957 272.703 884.376 263.807C875.769 254.596 866.833 245.002 862.721 244.838V242.097C867.71 242.097 874.892 249.772 886.295 261.943C893.712 270.654 902.099 278.49 911.294 285.297L909.924 287.655Z" fill="#F3F3F3"/>
<path d="M485.484 144.237C482.03 144.237 478.576 140.729 468.653 130.531C462.842 124.556 454.893 116.387 443.599 105.532C443.085 105.068 442.673 104.501 442.39 103.869C442.107 103.236 441.958 102.552 441.954 101.859C441.954 98.3503 445.902 94.8416 450.397 90.8944C452.425 89.0304 454.564 87.1116 456.373 85.4121C476.054 63.4829 481.865 59.5356 485.813 59.5356C486.772 59.6189 487.699 59.9188 488.525 60.4126C489.352 60.9064 490.055 61.5813 490.582 62.3865L491.569 63.4281C498.806 70.7744 504.343 76.2567 508.674 80.5329C515.582 86.7954 521.861 93.7177 527.423 101.201C529.5 100.486 531.714 100.261 533.893 100.543H537.84V103.284H533.783C527.972 103.284 527.972 103.284 519.035 112.495C514.54 117.264 507.742 124.446 497.106 135.027C495.297 136.781 493.926 138.316 492.72 139.632C489.979 142.592 488.225 144.566 485.703 144.621L485.484 144.237ZM485.813 62.0027C482.414 62.0027 474.245 69.4587 458.401 87.002C456.537 89.0305 454.344 91.0041 452.206 92.9229C448.533 96.2671 444.75 99.6661 444.695 102.023C444.709 102.34 444.789 102.65 444.931 102.934C445.072 103.217 445.273 103.467 445.518 103.668C456.811 114.633 464.816 122.747 470.627 128.722C478.96 137.275 483.181 141.606 485.484 141.606C486.8 141.606 488.28 139.961 490.528 137.494C491.734 136.178 493.159 134.588 495.023 132.779C505.988 122.253 512.566 115.071 516.952 110.302C519.472 107.488 522.163 104.833 525.011 102.352C519.506 95.0741 513.34 88.3203 506.591 82.1776C502.26 77.9014 496.777 72.4191 489.486 65.0728L488.444 63.9215C487.293 62.6606 486.69 62.0027 485.703 62.0027H485.813Z" fill="#F3F3F3"/>
<path d="M1052.85 144.237C1049.39 144.237 1045.99 140.729 1036.02 130.531C1030.53 124.556 1022.31 116.387 1011.02 105.532C1010.49 105.077 1010.07 104.512 1009.79 103.878C1009.5 103.243 1009.36 102.554 1009.37 101.859C1009.37 98.3503 1013.32 94.8416 1017.76 90.8944C1019.85 89.1765 1021.84 87.3463 1023.74 85.4121C1043.42 63.4829 1049.28 59.5356 1053.18 59.5356C1054.15 59.5803 1055.1 59.8635 1055.94 60.3605C1056.78 60.8575 1057.49 61.5531 1058 62.3865L1058.93 63.4281C1066.22 70.7744 1071.71 76.2018 1076.04 80.5329C1082.94 86.8139 1089.24 93.7342 1094.84 101.201C1096.9 100.485 1099.1 100.26 1101.26 100.543H1105.26V103.284H1101.15C1095.33 103.284 1095.33 103.284 1086.45 112.44C1081.96 117.209 1075.11 124.391 1064.52 135.027C1062.77 136.781 1061.34 138.316 1060.14 139.632C1057.45 142.592 1055.64 144.566 1053.18 144.621L1052.85 144.237ZM1053.18 62.0027C1049.83 62.0027 1041.61 69.4587 1025.76 87.002C1023.9 89.0305 1021.71 91.0041 1019.62 92.9229C1015.95 96.2671 1012.11 99.6661 1012.11 102.023C1012.12 102.342 1012.19 102.656 1012.33 102.941C1012.48 103.227 1012.68 103.475 1012.94 103.668C1024.23 114.633 1032.18 122.747 1037.99 128.722C1046.32 137.275 1050.54 141.606 1052.85 141.606C1054.16 141.606 1055.64 139.961 1057.84 137.494C1059.1 136.178 1060.52 134.588 1062.33 132.779C1073.3 122.198 1079.93 115.017 1084.26 110.302C1086.75 107.478 1089.42 104.822 1092.26 102.352C1086.78 95.0727 1080.63 88.3186 1073.9 82.1776C1069.57 77.9014 1064.03 72.4191 1056.79 65.0728L1055.75 63.9215C1054.6 62.6606 1053.94 62.0027 1052.96 62.0027H1053.18Z" fill="#F3F3F3"/>
<path d="M1336.56 144.237C1333.1 144.237 1329.7 140.729 1319.73 130.531C1313.91 124.556 1305.96 116.387 1294.73 105.532C1294.19 105.084 1293.77 104.521 1293.48 103.885C1293.2 103.248 1293.06 102.556 1293.08 101.859C1293.08 98.3503 1296.97 94.8416 1301.47 90.8944C1303.56 89.1765 1305.55 87.3463 1307.44 85.4121C1327.13 63.4829 1332.99 59.5356 1336.88 59.5356C1337.85 59.6226 1338.78 59.9236 1339.62 60.4167C1340.45 60.9098 1341.17 61.5827 1341.71 62.3865L1342.64 63.4281C1349.88 70.7744 1355.36 76.2019 1359.69 80.4781C1366.62 86.7739 1372.93 93.7127 1378.55 101.201C1380.61 100.481 1382.8 100.256 1384.96 100.543H1388.75V103.284H1384.64C1378.82 103.284 1378.82 103.284 1369.94 112.44C1365.45 117.209 1358.59 124.391 1348.01 135.027C1346.2 136.781 1344.83 138.316 1343.63 139.632C1340.94 142.592 1339.13 144.566 1336.61 144.621L1336.56 144.237ZM1336.88 62.0027C1333.54 62.0027 1325.32 69.4587 1309.47 87.002C1307.61 89.0305 1305.42 91.0041 1303.33 92.9229C1299.66 96.2671 1295.82 99.6661 1295.82 102.023C1295.81 102.339 1295.87 102.653 1296.01 102.939C1296.14 103.225 1296.34 103.475 1296.59 103.668C1307.94 114.633 1315.89 122.747 1321.7 128.722C1330.03 137.275 1334.25 141.606 1336.56 141.606C1337.87 141.606 1339.35 139.961 1341.6 137.494C1342.81 136.178 1344.29 134.588 1346.09 132.779C1357.06 122.198 1363.69 115.017 1368.02 110.302C1370.5 107.465 1373.17 104.808 1376.03 102.352C1370.54 95.0628 1364.37 88.3078 1357.61 82.1776C1353.28 77.8465 1347.79 72.4191 1340.56 65.0728L1339.46 63.9215C1338.37 62.6606 1337.71 62.0027 1336.72 62.0027H1336.88Z" fill="#F3F3F3"/>
<path d="M769.248 144.237C765.794 144.237 762.395 140.729 752.472 130.531C746.66 124.556 738.711 116.387 727.418 105.532C726.903 105.068 726.492 104.501 726.208 103.869C725.925 103.236 725.777 102.552 725.773 101.859C725.773 98.3503 729.72 94.8416 734.216 90.8944C736.244 89.0304 738.382 87.1116 740.137 85.4121C759.818 63.4829 765.684 59.5356 769.631 59.5356C770.589 59.6228 771.515 59.9243 772.341 60.4178C773.166 60.9112 773.871 61.5841 774.401 62.3865C774.73 62.7154 775.004 63.0992 775.388 63.4281C782.569 70.7196 788.107 76.2019 792.438 80.4781C799.35 86.7725 805.647 93.7116 811.242 101.201C813.318 100.482 815.533 100.257 817.711 100.543H821.658V103.284H817.601C811.735 103.284 811.735 103.284 802.854 112.495C798.304 117.264 791.506 124.446 780.925 135.027C779.171 136.781 777.745 138.316 776.594 139.632C773.853 142.592 772.043 144.566 769.576 144.621L769.248 144.237ZM769.631 62.0027C766.232 62.0027 758.009 69.4587 742.22 87.002C740.356 89.0305 738.218 91.0041 736.08 92.9229C732.406 96.2671 728.624 99.6661 728.569 102.023C728.571 102.342 728.646 102.656 728.789 102.941C728.931 103.227 729.137 103.475 729.391 103.668C740.685 114.633 748.634 122.747 754.445 128.722C762.833 137.275 767 141.606 769.302 141.606C770.618 141.606 772.098 139.961 774.346 137.494C775.552 136.178 776.978 134.588 778.787 132.779C789.751 122.253 796.33 115.071 800.716 110.357C803.238 107.528 805.93 104.856 808.775 102.352C803.316 95.0357 797.146 88.2777 790.354 82.1776C786.023 77.8465 780.541 72.4191 773.304 65.0728L772.263 63.9215C771.112 62.6606 770.454 62.0027 769.522 62.0027H769.631Z" fill="#F3F3F3"/>
<path d="M201.775 144.237C198.321 144.237 194.922 140.729 184.944 130.531C179.133 124.556 171.184 116.387 159.945 105.532C159.411 105.084 158.985 104.521 158.7 103.885C158.415 103.248 158.279 102.556 158.3 101.859C158.3 98.3503 162.193 94.8416 166.688 90.8944C168.778 89.1765 170.773 87.3463 172.664 85.4121C192.346 63.4829 198.212 59.5356 202.104 59.5356C203.073 59.6108 204.011 59.9069 204.847 60.401C205.683 60.8952 206.395 61.5744 206.928 62.3865L207.86 63.4281C215.097 70.7744 220.634 76.2018 224.965 80.5329C231.871 86.8139 238.167 93.7342 243.77 101.201C245.826 100.481 248.024 100.256 250.184 100.543H253.912V103.284H249.91C244.044 103.284 244.044 103.284 235.107 112.495C230.612 117.264 223.814 124.446 213.178 135.027C211.369 136.781 209.999 138.316 208.792 139.632C206.106 142.592 204.297 144.566 201.775 144.621V144.237ZM202.104 62.0027C198.76 62.0027 190.536 69.4587 174.693 87.002C172.829 89.0305 170.636 91.0041 168.552 92.9229C164.879 96.2671 161.042 99.6661 161.042 102.023C161.029 102.339 161.092 102.653 161.225 102.939C161.359 103.225 161.559 103.475 161.809 103.668C173.157 114.633 181.107 122.747 186.918 128.722C195.251 137.275 199.473 141.606 201.775 141.606C203.036 141.606 204.516 139.961 206.764 137.494C207.97 136.178 209.45 134.588 211.259 132.779C222.224 122.253 228.803 115.071 233.189 110.357C235.697 107.515 238.389 104.841 241.248 102.352C235.743 95.0741 229.576 88.3203 222.827 82.1776C218.496 77.9014 213.014 72.4191 205.777 65.0728L204.681 63.9215C203.584 62.6606 202.926 62.0027 201.94 62.0027H202.104Z" fill="#F3F3F3"/>
<path d="M377.695 100.305L365.595 100.92L365.734 103.658L377.835 103.043L377.695 100.305Z" fill="#F3F3F3"/>
<path d="M1171.92 100.215H1159.81V102.956H1171.92V100.215Z" fill="#F3F3F3"/>
<path d="M1228.77 100.354L1216.67 100.969L1216.81 103.706L1228.91 103.091L1228.77 100.354Z" fill="#F3F3F3"/>
<path d="M37.1418 100.215H25.0259V102.956H37.1418V100.215Z" fill="#F3F3F3"/>
<path d="M320.851 100.215H308.735V102.956H320.851V100.215Z" fill="#F3F3F3"/>
<path d="M945.067 100.276L932.967 100.889L933.105 103.626L945.206 103.013L945.067 100.276Z" fill="#F3F3F3"/>
<path d="M93.9688 100.289L81.8685 100.904L82.0077 103.642L94.1079 103.027L93.9688 100.289Z" fill="#F3F3F3"/>
<path d="M888.213 100.215H876.098V102.956H888.213V100.215Z" fill="#F3F3F3"/>
<path d="M604.504 100.215H592.389V102.956H604.504V100.215Z" fill="#F3F3F3"/>
<path d="M1195.72 123.406H1192.97V135.522H1195.72V123.406Z" fill="#F3F3F3"/>
<path d="M912.007 123.406H909.266V135.522H912.007V123.406Z" fill="#F3F3F3"/>
<path d="M628.353 123.406H625.612V135.522H628.353V123.406Z" fill="#F3F3F3"/>
<path d="M344.644 123.406H341.903V135.522H344.644V123.406Z" fill="#F3F3F3"/>
<path d="M60.9348 123.406H58.1936V135.522H60.9348V123.406Z" fill="#F3F3F3"/>
<path d="M661.367 100.32L649.267 100.936L649.406 103.673L661.506 103.058L661.367 100.32Z" fill="#F3F3F3"/>
<path d="M1293.74 100.215H1283.43V102.956H1293.74V100.215Z" fill="#F3F3F3"/>
<path d="M726.376 100.215H716.07V102.956H726.376V100.215Z" fill="#F3F3F3"/>
<path d="M60.2771 200.815L57.6456 199.992C58.1898 197.789 58.3749 195.512 58.1939 193.249C58.1939 192.153 58.1939 191.111 58.1939 190.069H60.935C60.935 191.056 60.935 192.043 60.935 193.085C61.1323 195.68 60.9101 198.29 60.2771 200.815Z" fill="#F3F3F3"/>
<path d="M343.986 200.815L341.354 199.992C341.899 197.789 342.084 195.512 341.903 193.249C341.903 192.153 341.903 191.111 341.903 190.069H344.644C344.644 191.056 344.644 192.043 344.644 193.085C344.841 195.68 344.619 198.29 343.986 200.815Z" fill="#F3F3F3"/>
<path d="M627.64 200.815L625.063 199.992C625.581 197.784 625.766 195.511 625.611 193.249C625.556 192.19 625.556 191.129 625.611 190.069H628.352C628.297 191.074 628.297 192.08 628.352 193.085C628.559 195.683 628.318 198.298 627.64 200.815Z" fill="#F3F3F3"/>
<path d="M911.349 200.815L908.717 199.993C909.261 197.789 909.446 195.512 909.265 193.249V190.289H912.006V193.304C912.18 195.827 911.958 198.361 911.349 200.815Z" fill="#F3F3F3"/>
<path d="M1195.06 200.815L1192.43 199.992C1192.97 197.771 1193.16 195.475 1192.97 193.194C1192.97 192.153 1192.97 191.111 1192.97 190.069H1195.72C1195.72 191.056 1195.72 192.043 1195.72 193.03C1195.91 195.643 1195.69 198.272 1195.06 200.815Z" fill="#F3F3F3"/>
<path d="M1010.09 100.215H999.779V102.956H1010.09V100.215Z" fill="#F3F3F3"/>
<path d="M159.013 100.215H148.706V102.956H159.013V100.215Z" fill="#F3F3F3"/>
<path d="M442.667 100.215H432.36V102.956H442.667V100.215Z" fill="#F3F3F3"/>
<path d="M1335.02 344.177C1334.25 342.616 1333.98 340.854 1334.25 339.134C1334.25 338.366 1334.25 337.653 1334.25 336.996L1336.94 336.612C1337.02 337.505 1337.02 338.405 1336.94 339.298C1336.77 340.486 1336.92 341.698 1337.38 342.807L1335.02 344.177Z" fill="#F3F3F3"/>
<path d="M1051.31 344.177C1050.54 342.616 1050.27 340.854 1050.54 339.134C1050.6 338.422 1050.6 337.707 1050.54 336.996L1053.23 336.612C1053.34 337.504 1053.34 338.406 1053.23 339.298C1053.02 340.48 1053.15 341.699 1053.61 342.807L1051.31 344.177Z" fill="#F3F3F3"/>
<path d="M767.603 344.177C766.833 342.616 766.565 340.854 766.835 339.134C766.918 338.423 766.918 337.706 766.835 336.996L769.576 336.612C769.659 337.505 769.659 338.405 769.576 339.298C769.331 340.484 769.485 341.718 770.015 342.807L767.603 344.177Z" fill="#F3F3F3"/>
<path d="M484.168 344.177C483.358 342.629 483.069 340.86 483.346 339.134C483.428 338.423 483.428 337.706 483.346 336.996L486.087 336.612C486.169 337.505 486.169 338.405 486.087 339.298C485.889 340.485 486.041 341.705 486.525 342.807L484.168 344.177Z" fill="#F3F3F3"/>
<path d="M200.24 344.177C199.47 342.616 199.202 340.854 199.473 339.134C199.473 338.366 199.473 337.653 199.473 336.996L202.159 336.612C202.241 337.505 202.241 338.405 202.159 339.298C201.988 340.486 202.139 341.698 202.598 342.807L200.24 344.177Z" fill="#F3F3F3"/>
<path d="M1051.31 60.4681C1050.54 58.9062 1050.27 57.1445 1050.54 55.4243C1050.6 54.7126 1050.6 53.9978 1050.54 53.2862L1053.23 52.9573C1053.34 53.8311 1053.34 54.715 1053.23 55.5888C1053.01 56.7707 1053.15 57.9907 1053.61 59.0975L1051.31 60.4681Z" fill="#F3F3F3"/>
<path d="M767.603 60.4681C766.833 58.9062 766.565 57.1445 766.835 55.4243C766.918 54.714 766.918 53.9965 766.835 53.2862L769.576 52.9573C769.659 53.8325 769.659 54.7135 769.576 55.5888C769.331 56.7747 769.485 58.0085 770.015 59.0975L767.603 60.4681Z" fill="#F3F3F3"/>
<path d="M484.168 60.4681C483.358 58.9193 483.069 57.1502 483.346 55.4243C483.428 54.714 483.428 53.9965 483.346 53.2862L486.087 52.9573C486.169 53.8325 486.169 54.7135 486.087 55.5888C485.883 56.7759 486.035 57.9971 486.525 59.0975L484.168 60.4681Z" fill="#F3F3F3"/>
<path d="M200.24 60.4681C199.47 58.9062 199.202 57.1445 199.473 55.4243C199.473 54.6568 199.473 53.9441 199.473 53.2862L202.159 52.9573C202.241 53.8325 202.241 54.7135 202.159 55.5888C201.985 56.7765 202.137 57.9892 202.598 59.0975L200.24 60.4681Z" fill="#F3F3F3"/>
<path d="M1335.02 60.4681C1334.25 58.9062 1333.98 57.1445 1334.25 55.4243C1334.25 54.6568 1334.25 53.9441 1334.25 53.2862L1336.94 52.9573C1337.02 53.8325 1337.02 54.7135 1336.94 55.5888C1336.76 56.7764 1336.91 57.9906 1337.38 59.0975L1335.02 60.4681Z" fill="#F3F3F3"/>
</g>
</svg>
