<svg width="1148" height="242" viewBox="0 0 1148 242" fill="none" xmlns="http://www.w3.org/2000/svg">
<path d="M944.164 50.4119L914.382 34.2724L911.498 0H909.311L906.447 34.1563L876.471 49.4637L877.303 51.4763L909.06 41.3939V157.486H910.066H911.537V41.4713L943.274 52.4052L944.164 50.4119Z" fill="url(#paint0_linear)"/>
<path d="M1032.31 56.6045L1002.55 40.4843L999.666 6.21191H997.479L994.615 40.3488L964.639 55.6562L965.451 57.6689L997.227 47.6058V163.698H998.234H999.705V47.6832L1031.44 58.5978L1032.31 56.6045Z" fill="url(#paint1_linear)"/>
<path d="M1137.07 50.4119L1107.28 34.2724L1104.4 0H1102.23L1099.35 34.1563L1069.37 49.4637L1070.2 51.4763L1101.96 41.3939V157.486H1102.97H1104.46V41.4713L1136.19 52.4052L1137.07 50.4119Z" fill="url(#paint2_linear)"/>
<path d="M1060.64 48.0509L1058.98 49.5604L1013.37 90.7801H1026.72V143.553H1045.7H1058.98H1094.55V90.7801H1107.9L1060.64 48.0509Z" fill="url(#paint3_linear)"/>
<path d="M980.895 71.8733L979.559 73.0731V73.0538L943.526 105.643H954.073V147.365H969.07H979.559H1007.7V105.643H1018.24L980.895 71.8733Z" fill="url(#paint4_linear)"/>
<path d="M904.164 80.6205L902.829 81.8203L866.795 114.39H877.342V156.113H892.34H902.829H930.966V114.39H941.513L904.164 80.6205Z" fill="url(#paint5_linear)"/>
<path d="M62.6618 330.358C194.023 271.45 360.915 219.084 547.468 182.16C790.064 134.148 1019.33 121.492 1192.68 139.876L1225.16 239.945L105.256 461.622L62.6618 330.358Z" fill="url(#paint6_linear)"/>
<path d="M59.8169 341.969C197.39 292.544 369.623 252.04 559.64 228.296C806.765 197.429 1036.57 200.835 1207.14 231.256L1228 333.183L87.2 475.691L59.8169 341.969Z" fill="url(#paint7_linear)"/>
<defs>
<linearGradient id="paint0_linear" x1="876.471" y1="78.7432" x2="944.164" y2="78.7432" gradientUnits="userSpaceOnUse">
<stop stop-color="#C1CAC1"/>
<stop offset="0.51" stop-color="#9CAEA1"/>
<stop offset="1" stop-color="#72927E"/>
</linearGradient>
<linearGradient id="paint1_linear" x1="34698.1" y1="6919.87" x2="37064.6" y2="6919.87" gradientUnits="userSpaceOnUse">
<stop stop-color="#C1CAC1"/>
<stop offset="0.51" stop-color="#9CAEA1"/>
<stop offset="1" stop-color="#72927E"/>
</linearGradient>
<linearGradient id="paint2_linear" x1="38476" y1="6408.13" x2="40843.9" y2="6408.13" gradientUnits="userSpaceOnUse">
<stop stop-color="#C1CAC1"/>
<stop offset="0.51" stop-color="#9CAEA1"/>
<stop offset="1" stop-color="#72927E"/>
</linearGradient>
<linearGradient id="paint3_linear" x1="1065.33" y1="132.561" x2="1064.36" y2="29.9955" gradientUnits="userSpaceOnUse">
<stop stop-color="#C1CAC1"/>
<stop offset="0.526042" stop-color="#9CAEA1"/>
<stop offset="1" stop-color="#72927E"/>
</linearGradient>
<linearGradient id="paint4_linear" x1="983.081" y1="128.691" x2="981.146" y2="71.6023" gradientUnits="userSpaceOnUse">
<stop stop-color="#C1CAC1"/>
<stop offset="0.526042" stop-color="#9CAEA1"/>
<stop offset="1" stop-color="#72927E"/>
</linearGradient>
<linearGradient id="paint5_linear" x1="906.35" y1="137.438" x2="904.415" y2="80.3495" gradientUnits="userSpaceOnUse">
<stop stop-color="#C1CAC1"/>
<stop offset="0.526042" stop-color="#9CAEA1"/>
<stop offset="1" stop-color="#72927E"/>
</linearGradient>
<linearGradient id="paint6_linear" x1="643.909" y1="131.819" x2="643.909" y2="461.622" gradientUnits="userSpaceOnUse">
<stop stop-color="#C1CAC1"/>
<stop offset="0.526042" stop-color="#9CAEA1"/>
<stop offset="1" stop-color="#72927E"/>
</linearGradient>
<linearGradient id="paint7_linear" x1="643.908" y1="206.731" x2="643.908" y2="475.691" gradientUnits="userSpaceOnUse">
<stop stop-color="#C1CAC1"/>
<stop offset="0.526042" stop-color="#9CAEA1"/>
<stop offset="1" stop-color="#72927E"/>
</linearGradient>
</defs>
</svg>
