<svg width="85" height="85" viewBox="0 0 85 85" fill="none" xmlns="http://www.w3.org/2000/svg">
<path d="M0 0H80C82.7614 0 85 2.23858 85 5V85H5C2.23858 85 0 82.7614 0 80V0Z" fill="#254828" fill-opacity="0.1"/>
<path d="M47.8512 31.7358C44.4072 31.7358 41.5771 34.4272 41.4072 37.8635C41.3942 38.128 41.5982 38.3536 41.8632 38.3666C41.8713 38.367 41.879 38.367 41.8872 38.367C42.1411 38.367 42.3537 38.1674 42.3662 37.9106C42.5107 34.9864 44.9193 32.6963 47.8512 32.6963C49.0857 32.6963 50.2521 33.0976 51.2241 33.857C51.4329 34.0202 51.7344 33.9827 51.8976 33.7739C52.0608 33.5651 52.0238 33.2637 51.8145 33.1005C50.6726 32.2077 49.3022 31.7358 47.8512 31.7358Z" fill="#254828"/>
<path d="M53.4086 34.9158C53.2737 34.6873 52.9785 34.6115 52.7515 34.7459C52.523 34.8803 52.4472 35.175 52.5816 35.403C52.6363 35.4961 52.6891 35.5912 52.7381 35.6881C52.823 35.8552 52.9915 35.9507 53.1667 35.9507C53.2397 35.9507 53.3145 35.9339 53.3837 35.8989C53.6198 35.7784 53.7139 35.4894 53.5939 35.2533C53.5353 35.1385 53.4734 35.0262 53.4086 34.9158Z" fill="#254828"/>
<path d="M62.7163 42.5526C61.9272 41.9296 60.6893 41.741 59.5642 42.0722C58.2168 42.4662 57.3739 42.8781 56.5896 43.3499C57.552 41.7582 58.0786 39.9261 58.0786 38.056C58.0786 32.4098 53.4898 27.8162 47.8498 27.8162C42.203 27.8162 37.6094 32.4098 37.6094 38.056C37.6094 38.5744 37.6589 39.0803 37.7366 39.5728C36.1435 39.1854 34.2538 39.0438 32.2248 39.5526C30.563 39.9702 29.0664 40.7776 27.6494 42.0208C27.2966 42.3294 26.9381 42.5843 26.5536 42.7998C26.5445 42.8051 26.5392 42.8142 26.5305 42.8195C25.224 42.1888 23.7086 42.2718 22.5192 43.0667C20.9405 44.1208 20.4926 45.9923 20.4475 46.409C20.3035 47.475 20.4369 50.0469 21.8462 52.9451C22.1189 53.5053 22.439 54.0472 22.7981 54.555C22.8912 54.687 23.04 54.7581 23.1902 54.7581C23.2857 54.7581 23.3827 54.7293 23.4667 54.6698C23.6832 54.5171 23.735 54.2176 23.5814 54.0006C23.2521 53.535 22.9589 53.0387 22.7093 52.5251C21.3989 49.8309 21.2688 47.4923 21.4022 46.4968C21.4037 46.4805 21.6739 44.7856 23.0525 43.8645C23.9256 43.2818 25.0325 43.2045 26.0078 43.6322C25.956 44.3248 26.0366 45.0208 26.1446 45.677C26.183 45.9122 26.3865 46.0792 26.6174 46.0792C26.6433 46.0792 26.6693 46.0773 26.6957 46.0725C26.9573 46.0298 27.1344 45.7826 27.0912 45.5214C26.9904 44.9085 26.9145 44.2643 26.9678 43.6547C26.9861 43.6475 27.0053 43.647 27.0225 43.637C27.4656 43.3878 27.8769 43.096 28.2811 42.7432C29.5814 41.6022 30.948 40.8635 32.4581 40.4838C36.5352 39.4614 40.0411 41.3027 41.3587 42.1422C41.8546 42.4581 42.4171 42.6251 42.9845 42.6251H51.3667C52.6925 42.6251 53.7307 43.6178 53.7307 44.8854C53.7307 45.5123 53.4811 46.0946 53.0266 46.5266C52.5763 46.9595 51.9758 47.1976 51.3355 47.1976L42.8966 47.2077C42.4594 47.1347 42.0235 47.3411 41.8243 47.728C41.5752 48.2171 41.845 48.7221 41.8709 48.7677C42.2626 49.396 45.5918 50.0229 46.1194 50.0848C46.1981 50.0944 46.2739 50.0987 46.3493 50.0987C46.9171 50.0987 47.4533 49.8222 48.9667 49.0413C49.3862 48.8248 49.8864 48.567 50.4907 48.2603C50.543 48.2339 50.5886 48.1989 50.6266 48.1581L51.3365 48.1571C52.2254 48.1571 53.0621 47.824 53.6904 47.2202C54.119 46.8126 54.4161 46.3091 54.5697 45.7566C55.1986 45.3856 55.7069 45.0549 56.1542 44.7626C57.2688 44.0339 58.0742 43.5078 59.8349 42.9928C60.6595 42.7509 61.5792 42.8762 62.1226 43.3053C62.4907 43.5957 62.6645 43.9974 62.6381 44.501C62.5949 45.4144 61.6795 46.288 61.3109 46.6024C55.3805 51.0424 50.6011 54.3261 47.4907 56.0973C46.7626 56.511 45.2501 57.3746 43.3824 57.2003C42.5525 57.1254 42.023 56.8802 41.0626 56.4352L40.6766 56.2576C37.0526 54.6006 35.2334 53.7688 33.2477 53.5691C32.7144 53.5115 32.1864 53.5413 31.6426 53.6502C31.4717 53.4976 31.3008 53.3454 31.128 53.1952C30.5333 52.6773 29.9717 52.1877 29.4873 51.6088C28.991 51.017 28.559 50.3243 28.2043 49.5515C28.0934 49.3101 27.8083 49.2054 27.5678 49.3154C27.3269 49.4258 27.2208 49.7109 27.3317 49.9518C27.7224 50.8024 28.2005 51.5675 28.7515 52.2251C29.2838 52.8616 29.9011 53.3992 30.4978 53.9186C30.6499 54.0515 30.8006 54.1864 30.9518 54.3208C30.8568 54.8032 30.5817 55.6749 29.7792 56.3032C28.8441 57.0366 27.5323 57.1826 26.3592 56.6838C26.3429 56.6766 26.3256 56.6786 26.3088 56.6733C25.7784 56.3118 25.2739 55.9029 24.8121 55.4483C24.623 55.2621 24.3197 55.2645 24.1334 55.4541C23.9472 55.6432 23.9501 55.9466 24.1392 56.1328C24.6691 56.6546 25.2494 57.1264 25.8624 57.5354C25.9392 57.5862 26.0246 57.6102 26.1101 57.6131C26.6549 57.8262 27.2203 57.9357 27.7776 57.9357C28.7174 57.9357 29.6318 57.6376 30.371 57.0582C31.368 56.2778 31.7381 55.2438 31.8782 54.5805C32.3083 54.4989 32.7249 54.4773 33.1473 54.5234C34.9781 54.7077 36.7493 55.517 40.2768 57.1298L40.6584 57.3059C41.6467 57.7634 42.299 58.0658 43.2946 58.156C43.4933 58.1742 43.6877 58.1829 43.8782 58.1829C45.7608 58.1829 47.2253 57.3515 47.965 56.932C51.155 55.1152 55.8384 51.8982 61.909 47.3522C62.5142 46.8376 63.5381 45.7888 63.5966 44.548C63.6374 43.7421 63.3254 43.0331 62.7163 42.5526ZM48.5256 48.1888C46.9464 49.0034 46.6013 49.1733 46.2307 49.132C45.155 49.0053 43.1491 48.4658 42.683 48.2219C42.6773 48.1974 42.6749 48.1768 42.6763 48.1691C42.6821 48.1624 42.7051 48.148 42.7435 48.1566C42.7786 48.1648 42.8141 48.1686 42.8506 48.1686H42.851L48.5794 48.1614C48.5611 48.1701 48.5434 48.1792 48.5256 48.1888ZM52.9939 42.0659C53.845 40.9418 54.2986 39.6078 54.2986 38.188C54.2986 37.9878 54.2894 37.7901 54.2717 37.5947C54.2477 37.3307 54.0134 37.1373 53.7504 37.1598C53.4864 37.1838 53.2915 37.4171 53.3155 37.6811C53.3304 37.8486 53.3386 38.0171 53.3386 38.1885C53.3386 39.4643 52.9133 40.6605 52.1093 41.6478C52.0877 41.6742 52.0786 41.7054 52.0637 41.7347C51.8395 41.6901 51.6067 41.6656 51.3667 41.6656H43.5245C43.513 41.5902 43.4894 41.5163 43.4405 41.451C43.0747 40.9638 42.7963 40.4224 42.6125 39.8416C42.5328 39.5896 42.264 39.448 42.0101 39.5291C41.7576 39.6088 41.6174 39.8786 41.6976 40.1315C41.8565 40.6346 42.0773 41.1122 42.3538 41.5586C42.1882 41.5034 42.0269 41.4299 41.8742 41.333C41.2426 40.9307 40.1414 40.3154 38.7259 39.8531C38.7293 39.8104 38.7355 39.7682 38.7264 39.724C38.6218 39.1917 38.569 38.631 38.569 38.057C38.569 32.9402 42.732 28.7771 47.8493 28.7771C52.9598 28.7771 57.1181 32.9402 57.1181 38.057C57.1181 40.1982 56.3674 42.2906 55.0032 43.949C54.8923 44.0834 54.8755 44.2581 54.9293 44.4117C54.8477 44.4635 54.7608 44.5173 54.6744 44.571C54.5698 43.479 53.9246 42.5627 52.9939 42.0659Z" fill="#254828"/>
<path d="M27.1032 48.4C27.1464 48.4 27.1901 48.3942 27.2333 48.3822C27.4881 48.3107 27.6374 48.0457 27.5654 47.7904C27.5165 47.6176 27.4713 47.4433 27.4291 47.2691C27.3672 47.0113 27.108 46.852 26.8497 46.9158C26.592 46.9782 26.4341 47.2374 26.4965 47.4952C26.5416 47.6809 26.5896 47.8657 26.6414 48.0501C26.7009 48.2617 26.8934 48.4 27.1032 48.4Z" fill="#254828"/>
<path d="M36.5942 42.8982C36.6293 42.9059 36.6643 42.9093 36.6984 42.9093C36.9187 42.9093 37.1169 42.7571 37.1669 42.533C37.224 42.2742 37.0603 42.0179 36.8016 41.9608C36.5477 41.9046 36.287 41.86 36.0273 41.8288C35.7624 41.7894 35.5248 41.9838 35.4931 42.2469C35.4609 42.5099 35.6477 42.7494 35.9112 42.7811C36.1401 42.8094 36.3701 42.8488 36.5942 42.8982Z" fill="#254828"/>
<path d="M31.0248 44.0244C31.8787 43.4191 32.8291 43.0202 33.851 42.8378L34.0056 42.8119C34.2677 42.7725 34.4481 42.5277 34.4083 42.2656C34.3689 42.0036 34.1232 41.8226 33.8621 41.8629C33.8016 41.872 33.7406 41.8821 33.6806 41.8932C32.5205 42.1 31.44 42.5532 30.4699 43.2405C30.2539 43.3936 30.2025 43.6936 30.3557 43.9101C30.4493 44.0421 30.5976 44.1127 30.7478 44.1127C30.8438 44.1122 30.9403 44.0839 31.0248 44.0244Z" fill="#254828"/>
</svg>
