<svg width="85" height="85" viewBox="0 0 85 85" fill="none" xmlns="http://www.w3.org/2000/svg">
<path d="M0 0H80C82.7614 0 85 2.23858 85 5V85H5C2.23858 85 0 82.7614 0 80V0Z" fill="#254828" fill-opacity="0.1"/>
<path d="M63.12 24.3951H21.0288C20.9015 24.3951 20.7794 24.4457 20.6894 24.5357C20.5994 24.6257 20.5488 24.7478 20.5488 24.8751V60.4863C20.5488 60.6136 20.5994 60.7357 20.6894 60.8258C20.7794 60.9158 20.9015 60.9663 21.0288 60.9663H63.12C63.2473 60.9663 63.3694 60.9158 63.4594 60.8258C63.5495 60.7357 63.6 60.6136 63.6 60.4863V24.8751C63.6 24.7478 63.5495 24.6257 63.4594 24.5357C63.3694 24.4457 63.2473 24.3951 63.12 24.3951ZM21.504 25.3551H26.8608V60.0111H21.504V25.3551ZM62.64 60.0063H27.8208V25.3503H62.64V60.0063Z" fill="#254828"/>
<path d="M29.4 32.2671H35.8032C35.9305 32.2671 36.0526 32.2165 36.1427 32.1265C36.2327 32.0365 36.2832 31.9144 36.2832 31.7871V27.6399C36.2832 27.5126 36.2327 27.3905 36.1427 27.3005C36.0526 27.2105 35.9305 27.1599 35.8032 27.1599H29.4C29.2727 27.1599 29.1506 27.2105 29.0606 27.3005C28.9706 27.3905 28.92 27.5126 28.92 27.6399V31.7967C28.9226 31.9223 28.9742 32.042 29.064 32.1299C29.1537 32.2179 29.2744 32.2671 29.4 32.2671ZM29.88 28.1103H35.328V31.3071H29.88V28.1103Z" fill="#254828"/>
<path d="M37.5792 32.2671H43.9824C44.1097 32.2671 44.2318 32.2165 44.3219 32.1265C44.4119 32.0365 44.4624 31.9144 44.4624 31.7871V27.6399C44.4624 27.5126 44.4119 27.3905 44.3219 27.3005C44.2318 27.2105 44.1097 27.1599 43.9824 27.1599H37.5792C37.4519 27.1599 37.3298 27.2105 37.2398 27.3005C37.1498 27.3905 37.0992 27.5126 37.0992 27.6399V31.7967C37.1018 31.9223 37.1534 32.042 37.2432 32.1299C37.3329 32.2179 37.4536 32.2671 37.5792 32.2671ZM38.0592 28.1103H43.5072V31.3071H38.0592V28.1103Z" fill="#254828"/>
<path d="M45.7584 32.2671H52.1616C52.2889 32.2671 52.411 32.2165 52.501 32.1265C52.591 32.0365 52.6416 31.9144 52.6416 31.7871V27.6399C52.6416 27.5126 52.591 27.3905 52.501 27.3005C52.411 27.2105 52.2889 27.1599 52.1616 27.1599H45.7584C45.6311 27.1599 45.509 27.2105 45.419 27.3005C45.329 27.3905 45.2784 27.5126 45.2784 27.6399V31.7967C45.2809 31.9223 45.3326 32.042 45.4223 32.1299C45.5121 32.2179 45.6328 32.2671 45.7584 32.2671ZM46.2384 28.1103H51.6816V31.3071H46.2384V28.1103Z" fill="#254828"/>
<path d="M53.9376 32.2671H60.3408C60.4681 32.2671 60.5902 32.2165 60.6802 32.1265C60.7702 32.0365 60.8208 31.9144 60.8208 31.7871V27.6399C60.8208 27.5126 60.7702 27.3905 60.6802 27.3005C60.5902 27.2105 60.4681 27.1599 60.3408 27.1599H53.9376C53.8103 27.1599 53.6882 27.2105 53.5982 27.3005C53.5082 27.3905 53.4576 27.5126 53.4576 27.6399V31.7967C53.4601 31.9223 53.5118 32.042 53.6015 32.1299C53.6913 32.2179 53.812 32.2671 53.9376 32.2671ZM54.4176 28.1103H59.8608V31.3071H54.4176V28.1103Z" fill="#254828"/>
<path d="M29.4 58.5039H43.6944C43.8217 58.5039 43.9438 58.4533 44.0339 58.3633C44.1239 58.2733 44.1744 58.1512 44.1744 58.0239V37.8639C44.1744 37.7366 44.1239 37.6145 44.0339 37.5245C43.9438 37.4345 43.8217 37.3839 43.6944 37.3839H29.4C29.2727 37.3839 29.1506 37.4345 29.0606 37.5245C28.9706 37.6145 28.92 37.7366 28.92 37.8639V58.0239C28.92 58.1512 28.9706 58.2733 29.0606 58.3633C29.1506 58.4533 29.2727 58.5039 29.4 58.5039ZM29.88 38.3439H43.2144V57.5439H29.88V38.3439Z" fill="#254828"/>
<path d="M60.36 37.3792H45.6432C45.5159 37.3792 45.3938 37.4297 45.3038 37.5197C45.2138 37.6098 45.1632 37.7318 45.1632 37.8592V47.9391C45.1632 48.0665 45.2138 48.1885 45.3038 48.2786C45.3938 48.3686 45.5159 48.4191 45.6432 48.4191H60.36C60.4873 48.4191 60.6094 48.3686 60.6994 48.2786C60.7894 48.1885 60.84 48.0665 60.84 47.9391V37.8592C60.84 37.7318 60.7894 37.6098 60.6994 37.5197C60.6094 37.4297 60.4873 37.3792 60.36 37.3792ZM59.88 47.4591H46.1184V38.3392H59.88V47.4591Z" fill="#254828"/>
<path d="M60.36 49.1968H45.6432C45.5159 49.1968 45.3938 49.2473 45.3038 49.3374C45.2138 49.4274 45.1632 49.5495 45.1632 49.6768V58.0528C45.1632 58.1801 45.2138 58.3022 45.3038 58.3922C45.3938 58.4822 45.5159 58.5328 45.6432 58.5328H60.36C60.4873 58.5328 60.6094 58.4822 60.6994 58.3922C60.7894 58.3022 60.84 58.1801 60.84 58.0528V49.672C60.8387 49.5455 60.7876 49.4246 60.6977 49.3357C60.6079 49.2467 60.4865 49.1968 60.36 49.1968ZM59.88 57.5728H46.1184V50.152H59.88V57.5728Z" fill="#254828"/>
<path d="M29.4 35.5408H55.2912C55.4186 35.5408 55.5406 35.4902 55.6307 35.4002C55.7207 35.3102 55.7712 35.1881 55.7712 35.0608C55.7712 34.9335 55.7207 34.8114 55.6307 34.7214C55.5406 34.6314 55.4186 34.5808 55.2912 34.5808H29.4C29.2727 34.5808 29.1506 34.6314 29.0606 34.7214C28.9706 34.8114 28.92 34.9335 28.92 35.0608C28.92 35.1881 28.9706 35.3102 29.0606 35.4002C29.1506 35.4902 29.2727 35.5408 29.4 35.5408Z" fill="#254828"/>
<path d="M57.9312 35.0608C57.9312 34.9335 57.8807 34.8114 57.7906 34.7214C57.7006 34.6314 57.5785 34.5808 57.4512 34.5808C57.3239 34.5808 57.2018 34.6314 57.1118 34.7214C57.0218 34.8114 56.9712 34.9335 56.9712 35.0608C56.9712 35.1881 57.0218 35.3102 57.1118 35.4002C57.2018 35.4902 57.3239 35.5408 57.4512 35.5408C57.5785 35.5408 57.7006 35.4902 57.7906 35.4002C57.8807 35.3102 57.9312 35.1881 57.9312 35.0608Z" fill="#254828"/>
<path d="M48.96 45.3664C49.079 45.3661 49.1936 45.3216 49.2816 45.2416L52.0512 42.7264L52.8768 44.1088C52.9144 44.1717 52.9659 44.2252 53.0273 44.2651C53.0887 44.3051 53.1585 44.3304 53.2313 44.3392C53.304 44.348 53.3778 44.34 53.447 44.3159C53.5162 44.2918 53.5789 44.2521 53.6304 44.2L56.6112 41.152C56.6553 41.1066 56.6901 41.053 56.7135 40.9942C56.7369 40.9353 56.7485 40.8725 56.7476 40.8092C56.7467 40.7459 56.7333 40.6834 56.7083 40.6253C56.6832 40.5672 56.647 40.5145 56.6016 40.4704C56.5562 40.4263 56.5026 40.3915 56.4438 40.3681C56.385 40.3447 56.3221 40.3331 56.2588 40.334C56.1955 40.3349 56.133 40.3483 56.0749 40.3733C56.0168 40.3984 55.9641 40.4346 55.92 40.48L53.376 43.0864L52.56 41.7328C52.5233 41.6721 52.4735 41.6203 52.4143 41.5812C52.3551 41.542 52.288 41.5165 52.2178 41.5064C52.1475 41.4963 52.0759 41.5019 52.0081 41.5228C51.9403 41.5437 51.878 41.5793 51.8256 41.6272L48.6384 44.536C48.5444 44.6214 48.4881 44.7406 48.4818 44.8675C48.4755 44.9943 48.5197 45.1185 48.6048 45.2128C48.6501 45.2617 48.7051 45.3005 48.7663 45.327C48.8274 45.3534 48.8934 45.3668 48.96 45.3664Z" fill="#254828"/>
<path d="M42.24 54.9472H40.56V47.944C40.56 47.8167 40.5095 47.6946 40.4194 47.6046C40.3294 47.5146 40.2073 47.464 40.08 47.464H37.488C37.3607 47.464 37.2386 47.5146 37.1486 47.6046C37.0586 47.6946 37.008 47.8167 37.008 47.944V54.9472H35.6688V42.8512C35.6688 42.7239 35.6183 42.6018 35.5282 42.5118C35.4382 42.4218 35.3161 42.3712 35.1888 42.3712H32.5968C32.4695 42.3712 32.3474 42.4218 32.2574 42.5118C32.1674 42.6018 32.1168 42.7239 32.1168 42.8512V54.9472H30.5136C30.3863 54.9472 30.2642 54.9978 30.1742 55.0878C30.0842 55.1778 30.0336 55.2999 30.0336 55.4272C30.0336 55.5545 30.0842 55.6766 30.1742 55.7666C30.2642 55.8566 30.3863 55.9072 30.5136 55.9072H42.24C42.3673 55.9072 42.4894 55.8566 42.5794 55.7666C42.6695 55.6766 42.72 55.5545 42.72 55.4272C42.72 55.2999 42.6695 55.1778 42.5794 55.0878C42.4894 54.9978 42.3673 54.9472 42.24 54.9472ZM37.9536 48.4192H39.6V54.6592H37.968L37.9536 48.4192ZM33.0816 43.3312H34.7136V54.664H33.0816V43.3312Z" fill="#254828"/>
</svg>
