<svg width="85" height="85" viewBox="0 0 85 85" fill="none" xmlns="http://www.w3.org/2000/svg">
<path d="M0 0H76.1458C81.0359 0 85 3.96415 85 8.85417V85H8.85416C3.96414 85 0 81.0359 0 76.1458V0Z" fill="#254828" fill-opacity="0.1"/>
<path d="M48.7651 59.1115H35.2901C33.432 59.1115 31.92 57.6 31.92 55.7419V28.0896C31.92 26.2315 33.4315 24.72 35.2901 24.72H48.7651C50.6227 24.72 52.1347 26.2315 52.1347 28.0896V55.7419C52.1347 57.6 50.6227 59.1115 48.7651 59.1115ZM35.2901 26.1605C34.2259 26.1605 33.36 27.0259 33.36 28.0901V55.7424C33.36 56.8065 34.2259 57.672 35.2901 57.672H48.7651C49.8293 57.672 50.6947 56.8065 50.6947 55.7424V28.0896C50.6947 27.0259 49.8293 26.16 48.7651 26.16H35.2901V26.1605Z" fill="#254828"/>
<path d="M42.0269 56.4997C40.6478 56.4997 39.5261 55.3775 39.5261 53.998C39.5261 52.6185 40.6478 51.4967 42.0269 51.4967C43.4064 51.4967 44.5291 52.6189 44.5291 53.998C44.5291 55.3775 43.4064 56.4997 42.0269 56.4997ZM42.0269 52.9367C41.4417 52.9367 40.9661 53.4129 40.9661 53.998C40.9661 54.5836 41.4417 55.0597 42.0269 55.0597C42.6125 55.0597 43.0891 54.5836 43.0891 53.998C43.0891 53.4129 42.6125 52.9367 42.0269 52.9367Z" fill="#254828"/>
<path d="M42.9298 29.4907H38.7326C38.3352 29.4907 38.0126 29.1686 38.0126 28.7707C38.0126 28.3727 38.3352 28.0507 38.7326 28.0507H42.9298C43.3272 28.0507 43.6498 28.3727 43.6498 28.7707C43.6498 29.1686 43.3272 29.4907 42.9298 29.4907Z" fill="#254828"/>
<path d="M45.3221 29.4907H45.0701C44.6727 29.4907 44.3501 29.1686 44.3501 28.7707C44.3501 28.3727 44.6727 28.0507 45.0701 28.0507H45.3221C45.7195 28.0507 46.0421 28.3727 46.0421 28.7707C46.0421 29.1686 45.7195 29.4907 45.3221 29.4907Z" fill="#254828"/>
<path d="M40.204 41.9571L42.1103 43.0216L43.9835 41.9755C44.1961 41.8567 44.2724 41.588 44.1535 41.3754C44.0348 41.1627 43.7657 41.0864 43.5531 41.2053L42.5515 41.7647V39.1554C42.5515 38.9119 42.3541 38.7142 42.1103 38.7142C41.8668 38.7142 41.6691 38.9117 41.6691 39.1554V41.7647L40.6341 41.1869C40.421 41.068 40.1526 41.144 40.034 41.3569C39.9151 41.5696 39.9913 41.8382 40.204 41.9571Z" fill="#254828"/>
<path d="M44.0517 43.475C43.8081 43.475 43.6105 43.6724 43.6105 43.9162V44.7986H40.577V43.9162C40.577 43.6727 40.3796 43.475 40.1358 43.475C39.8923 43.475 39.6946 43.6724 39.6946 43.9162V45.6811H44.4927V43.9162C44.4929 43.6724 44.2952 43.475 44.0517 43.475Z" fill="#254828"/>
</svg>
