<svg width="1440" height="528" viewBox="0 0 1440 528" fill="none" xmlns="http://www.w3.org/2000/svg">
<path d="M-181.392 398.959C-181.392 398.959 -18.1001 214.775 37.7628 116.259C93.6257 17.743 269.823 -85.0558 506.181 231.906C742.538 548.867 1021.87 373.249 1069.14 386.14C1116.4 399.031 695.255 501.801 695.255 501.801L-181.392 398.959Z" fill="white"/>
<path d="M-149.474 287.378C-149.474 287.378 60.5508 310.904 159.4 273.286C258.248 235.668 385.89 287.378 575.34 385.937C764.791 484.497 1283.67 465.717 1423.7 390.64C1563.73 315.563 1456.65 897.587 1456.65 897.587L-198.898 836.559L-149.474 287.378Z" fill="#8DC63F"/>
<path d="M111.153 456.616C111.153 456.616 341.984 325.097 436.781 214.109C531.579 103.121 663.488 123.681 787.136 246.996C910.784 370.311 1088.08 366.188 1265.26 452.449C1442.44 538.71 65.8233 534.673 111.153 456.573" fill="#2BB673"/>
<path d="M705.875 93.8759C705.875 93.8759 747.443 78.7852 742.046 161.082L748.702 162.442C748.702 162.442 748.702 104.655 787.376 92.7763C787.376 92.7763 754.894 98.3177 749.469 126.821C749.469 126.821 751.986 84.6884 705.846 93.8759" fill="white"/>
<path d="M659.301 132.145C659.301 132.145 688.976 123.768 685.142 169.474L689.902 170.241C689.902 170.241 689.902 138.121 717.537 131.523C717.537 131.523 694.315 134.619 690.452 150.448C690.452 150.448 692.246 127.038 659.301 132.145Z" fill="#1D3B2D"/>
<path d="M764.111 136.037C764.111 136.037 793.8 127.646 789.966 173.352L794.712 174.119C794.712 174.119 794.711 142.013 822.346 135.43C822.346 135.43 799.197 138.497 795.276 154.326C795.276 154.326 797.07 130.916 764.125 136.023" fill="white"/>
<path d="M98.6752 128.601V94.8457" stroke="#2BB673" stroke-width="1.02726" stroke-miterlimit="10"/>
<path d="M110.742 87.5968V53.7983" stroke="#2BB673" stroke-width="1.02726" stroke-miterlimit="10"/>
<path d="M134.875 106.898V73.1139" stroke="#2BB673" stroke-width="1.02726" stroke-miterlimit="10"/>
<path d="M180.741 104.496V70.7263" stroke="#2BB673" stroke-width="1.02726" stroke-miterlimit="10"/>
<path d="M156.607 77.9608V44.1479" stroke="#2BB673" stroke-width="1.02726" stroke-miterlimit="10"/>
<path d="M171.09 39.3156V5.53162" stroke="#2BB673" stroke-width="1.02726" stroke-miterlimit="10"/>
<path d="M137.292 51.3964V17.598" stroke="#2BB673" stroke-width="1.02726" stroke-miterlimit="10"/>
<path d="M212.123 34.5553V0.698975" stroke="#2BB673" stroke-width="1.02726" stroke-miterlimit="10"/>
<path d="M245.965 56.258V22.4307" stroke="#2BB673" stroke-width="1.02726" stroke-miterlimit="10"/>
<path d="M221.773 90.0128V56.2578" stroke="#2BB673" stroke-width="1.02726" stroke-miterlimit="10"/>
<path d="M282.136 65.8795V32.0811" stroke="#2BB673" stroke-width="1.02726" stroke-miterlimit="10"/>
<path d="M323.154 85.195V51.3966" stroke="#2BB673" stroke-width="1.02726" stroke-miterlimit="10"/>
<path d="M296.604 116.563V82.7643" stroke="#2BB673" stroke-width="1.02726" stroke-miterlimit="10"/>
<path d="M245.965 138.295V104.496" stroke="#2BB673" stroke-width="1.02726" stroke-miterlimit="10"/>
<path d="M347.244 160.012V126.228" stroke="#2BB673" stroke-width="1.02726" stroke-miterlimit="10"/>
<path d="M393.167 167.26V133.462" stroke="#2BB673" stroke-width="1.02726" stroke-miterlimit="10"/>
<path d="M371.435 222.776V188.978" stroke="#2BB673" stroke-width="1.02726" stroke-miterlimit="10"/>
<path d="M323.154 217.944V184.16" stroke="#2BB673" stroke-width="1.02726" stroke-miterlimit="10"/>
<path d="M279.705 186.576V152.778" stroke="#2BB673" stroke-width="1.02726" stroke-miterlimit="10"/>
<path d="M195.224 176.911V143.069" stroke="#2BB673" stroke-width="1.02726" stroke-miterlimit="10"/>
<path d="M1474.18 382.335C1474.18 382.335 631.507 327.615 452.43 360.097C273.353 392.578 -179.569 351.994 -179.569 351.994L-108.514 613.44L1537.34 587.093L1474.18 382.335Z" fill="white"/>
<path d="M1838.14 502.77C1838.14 502.77 1758.13 478.97 1506.14 496.665C1254.16 514.36 1049.85 453.259 877.095 428.417C704.341 403.574 -325.151 371.773 -508.713 481.531C-692.275 591.289 -422.336 775.343 -422.336 775.343L1938.92 722.243L1838.14 502.77Z" fill="#B1DDCE"/>
<path d="M1713.64 576.487C1713.64 576.487 1288.26 501.381 768.437 501.381C248.612 501.381 -37.7772 487.419 -385.267 570.917C-732.757 654.415 -237.92 1102.23 -237.92 1102.23L1805.37 999.315L1713.64 576.487Z" fill="#F39C12"/>
<path d="M1566.29 597.467C1566.29 597.467 356.113 474.875 -437.527 662.575L-384.862 1142.13L1218.39 1184.98H1594L1566.29 597.467Z" fill="white"/>
<path d="M137.321 464.472L123.995 464.009L123.069 451.725L114.301 442.567L105.128 451.248L103.681 463.532H85.3642L84.4382 451.696L74.7877 442.147L65.1517 451.696V461.26L47.2397 462.62V452.695L36.2725 442.567L29.3855 450.307V464.863L12.848 464.414V479.881L28.937 481.762V538.059L45.923 537.596L47.3699 481.285L65.2819 480.836L64.3559 538.97L85.0314 536.684L85.9429 480.373H103.783L102.336 537.147L122.592 535.787L123.055 480.807L135.454 480.344L137.321 464.472Z" fill="white"/>
<path d="M332.862 470.057L307.369 487.549L181.493 401.462L185.834 386.718L185.356 360.574L260.708 357.246L309.814 381.018L342.238 445.692L332.862 470.057Z" fill="#1D3B2D"/>
<path d="M499.265 440.816C499.265 440.816 518.58 406.266 515.614 380.598C512.127 365.305 498.758 353.947 498.758 353.947H369.989L329.882 394.908C329.882 394.908 298.124 348.522 249.567 348.522H172.783V361.847H253.04C253.04 361.847 338.751 372.207 332.805 467.959H473.988L499.265 440.816Z" fill="#2BB673"/>
<path d="M518.088 388.411L375.255 389.771L374.749 381.09L518.088 382.465V388.411Z" fill="#8DC63F"/>
<path d="M502.375 372.409L475.16 371.859L474.654 367.519L502.882 365.884L502.375 372.409Z" fill="white"/>
<path d="M447.757 411.59C447.757 411.59 501.536 415.337 498.397 480.156C495.257 544.975 393.341 537.495 386.468 485.148C379.596 432.801 414.61 409.723 447.742 411.59" fill="#191F13"/>
<path d="M467.666 430.573C467.666 430.573 490.656 443.681 484.449 482.356C481.338 498.589 462.066 509.846 437.831 509.195C422.914 509.195 393.703 487.984 402.398 454.909C409.242 431.832 432.247 414.976 467.666 430.573Z" fill="#1D3B2D"/>
<path d="M466.334 442.712C466.334 442.712 431.61 422.991 419.862 448.253C408.113 473.515 413.047 491.369 439.683 495.695C466.32 500.021 491.77 475.96 466.334 442.712Z" fill="#2BB673"/>
<path d="M461.545 451.016C461.545 451.016 441.535 431.368 427.776 449.743C414.016 468.118 420.889 485.914 437.774 490.935C454.658 495.956 475.305 479.534 461.545 451.016Z" fill="#B1DDCE"/>
<path d="M250.913 374.709C250.913 374.709 322.257 379.643 318.119 465.253C313.981 550.863 178.715 540.953 169.6 471.851C160.485 402.749 206.929 372.235 250.913 374.709Z" fill="#191F13"/>
<path d="M267.87 413.21C267.87 413.21 290.86 426.319 284.653 464.993C281.543 481.212 262.271 492.483 238.036 491.818C223.119 491.818 193.907 470.607 202.602 437.546C209.432 414.397 232.437 397.599 267.87 413.21Z" fill="#1D3B2D"/>
<path d="M266.539 423.165C266.539 423.165 231.814 403.444 220.066 428.706C208.318 453.968 213.237 471.837 239.888 476.148C266.539 480.46 291.974 456.413 266.539 423.165Z" fill="#2BB673"/>
<path d="M261.663 431.47C261.663 431.47 241.653 411.821 227.893 430.196C214.134 448.571 221.021 466.368 237.906 471.388C254.79 476.409 275.423 459.987 261.663 431.47Z" fill="#B1DDCE"/>
<path d="M445.76 448.354C445.76 448.354 448.654 450.293 448.654 451.465C448.654 452.637 441.203 454.576 445.76 448.354Z" fill="white"/>
<path d="M253.199 448.875C253.199 448.875 251.752 460.189 241.045 456.283C230.339 452.376 238.557 441.062 244.272 439.89C249.987 438.718 253.199 443.797 253.199 448.875Z" fill="white"/>
<path d="M261.75 451.61C261.75 451.61 257.149 455.126 257.496 449.845C257.843 444.564 262.459 445.012 261.75 451.61Z" fill="white"/>
<path d="M245.965 430.992C245.965 430.992 248.858 432.945 248.858 434.103C248.858 435.26 241.407 437.214 245.965 430.992Z" fill="white"/>
<path d="M228.602 446.242C228.602 446.242 233.348 447.125 230.498 449.584C227.647 452.044 225.448 449.584 228.602 446.242Z" fill="white"/>
<path d="M395.091 354.772L394.064 313.074H398.651V302.946L374.749 303.915L377.295 310.701L379.842 313.595L378.308 357.203L395.091 354.772Z" fill="#1D3B2D"/>
<path d="M343.338 355.524C343.338 355.524 331.589 364.596 324.804 360.053C324.804 360.053 334.758 333.764 353.741 335.572C355.549 339.652 345.161 351.893 345.161 351.893L350.123 359.127L352.843 355.944L365.952 355.496L374.734 408.696L342.368 420.184C338.346 412.661 328.406 393.62 328.406 393.62L346.477 363.685L343.338 355.524Z" fill="#1D3B2D"/>
<path d="M371.436 355.206C371.436 355.206 364.606 276.179 340.965 259.54C317.323 242.902 216.116 250.223 216.116 250.223C216.116 250.223 197.452 281.142 194.5 352.269C206.292 351.777 204.816 353.253 204.816 353.253C204.816 353.253 202.357 296.826 217.606 279.666C232.856 262.506 306.559 258.079 328.189 272.302C349.82 286.524 363.579 361.543 363.579 361.543L370.394 406.222H350.789L329.665 394.792L342.904 417.971L381.245 416.524L371.436 355.206Z" fill="#1D3B2D"/>
<path d="M350.557 259.309C350.557 259.309 352.872 250.266 335.684 248.906C318.495 247.546 206.986 242.106 206.986 242.106C206.986 242.106 197.235 241.209 196.772 252.06C196.309 262.911 197.698 261.117 197.698 261.117L341.399 260.886C341.399 260.886 352.872 263.374 350.557 259.309Z" fill="#2BB673"/>
<path d="M63.9653 393.186H54.3148V340.087H63.9653V393.186Z" fill="#191F13"/>
<path d="M68.2335 183.914H127.945C127.945 183.914 141.198 177.316 141.198 203.735C141.198 230.155 114.663 338.076 114.663 338.076C114.663 338.076 116.616 349.173 100.6 349.173H23.1496C23.1496 349.173 8.50749 355.756 11.1842 323.925C13.8608 292.095 68.2335 183.928 68.2335 183.928" fill="#F39C12"/>
<path d="M-54.3148 130.525H74.4549C74.4549 130.525 91.9184 123.913 83.136 161.372C74.3536 198.831 43.9408 328.859 43.9408 328.859C43.9408 328.859 46.1256 337.67 26.4774 337.67H-47.7461L-54.3148 130.525Z" fill="#1D3B2D"/>
</svg>
