<svg width="1302" height="236" viewBox="0 0 1302 236" fill="none" xmlns="http://www.w3.org/2000/svg">
<g clip-path="url(#clip0)">
<path d="M-349.392 430.959C-349.392 430.959 -186.1 246.775 -130.237 148.259C-74.3743 49.7428 101.823 -53.0559 338.181 263.906C574.538 580.867 853.867 405.248 901.136 418.14C948.404 431.031 527.255 533.801 527.255 533.801L-349.392 430.959Z" fill="white"/>
<path d="M-56.8469 488.616C-56.8469 488.616 173.984 357.097 268.781 246.109C363.579 135.121 495.488 155.681 619.136 278.996C742.784 402.311 920.081 398.188 1097.26 484.449C1274.44 570.71 -102.177 566.673 -56.8469 488.572" fill="#2BB673"/>
<path d="M537.875 125.876C537.875 125.876 579.443 110.785 574.046 193.082L580.702 194.442C580.702 194.442 580.702 136.655 619.376 124.776C619.376 124.776 586.894 130.318 581.469 158.821C581.469 158.821 583.986 116.688 537.846 125.876" fill="white"/>
<path d="M491.301 164.145C491.301 164.145 520.976 155.768 517.142 201.474L521.902 202.24C521.902 202.24 521.902 170.12 549.537 163.523C549.537 163.523 526.315 166.619 522.452 182.447C522.452 182.447 524.246 159.037 491.301 164.145Z" fill="#1D3B2D"/>
<path d="M596.111 168.037C596.111 168.037 625.8 159.645 621.966 205.351L626.712 206.118C626.712 206.118 626.711 174.013 654.346 167.43C654.346 167.43 631.197 170.497 627.276 186.325C627.276 186.325 629.07 162.915 596.125 168.023" fill="white"/>
<path d="M12.7406 136.496V102.726" stroke="#2BB673" stroke-width="1.02726" stroke-miterlimit="10"/>
<path d="M3.09009 71.3152V37.5312" stroke="#2BB673" stroke-width="1.02726" stroke-miterlimit="10"/>
<path d="M44.1227 66.555V32.6987" stroke="#2BB673" stroke-width="1.02726" stroke-miterlimit="10"/>
<path d="M77.9646 88.258V54.4307" stroke="#2BB673" stroke-width="1.02726" stroke-miterlimit="10"/>
<path d="M53.7733 122.013V88.2578" stroke="#2BB673" stroke-width="1.02726" stroke-miterlimit="10"/>
<path d="M114.136 97.8795V64.0811" stroke="#2BB673" stroke-width="1.02726" stroke-miterlimit="10"/>
<path d="M155.154 117.195V83.3965" stroke="#2BB673" stroke-width="1.02726" stroke-miterlimit="10"/>
<path d="M128.604 148.563V114.764" stroke="#2BB673" stroke-width="1.02726" stroke-miterlimit="10"/>
<path d="M77.9646 170.294V136.496" stroke="#2BB673" stroke-width="1.02726" stroke-miterlimit="10"/>
<path d="M179.244 192.012V158.228" stroke="#2BB673" stroke-width="1.02726" stroke-miterlimit="10"/>
<path d="M225.167 199.26V165.462" stroke="#2BB673" stroke-width="1.02726" stroke-miterlimit="10"/>
<path d="M203.435 254.775V220.977" stroke="#2BB673" stroke-width="1.02726" stroke-miterlimit="10"/>
<path d="M155.154 249.943V216.159" stroke="#2BB673" stroke-width="1.02726" stroke-miterlimit="10"/>
<path d="M111.705 218.576V184.777" stroke="#2BB673" stroke-width="1.02726" stroke-miterlimit="10"/>
<path d="M27.2235 208.911V175.069" stroke="#2BB673" stroke-width="1.02726" stroke-miterlimit="10"/>
<path d="M-59.7665 215.913H-0.0549545C-0.0549545 215.913 13.1982 209.316 13.1982 235.735C13.1982 262.154 -13.337 370.075 -13.337 370.075C-13.337 370.075 -11.3838 381.172 -27.4004 381.172H-104.85C-104.85 381.172 -119.492 387.756 -116.816 355.925C-114.139 324.094 -59.7665 215.928 -59.7665 215.928" fill="#F39C12"/>
</g>
<defs>
<clipPath id="clip0">
<rect width="1470" height="781.444" fill="white" transform="translate(-168)"/>
</clipPath>
</defs>
</svg>
